<svg enable-background="new 0 0 2500 2500" viewBox="0 0 2500 2500" xmlns="http://www.w3.org/2000/svg"><path d="m719.94 1431.47c-.4 0-.81-.11-1.17-.33-1.06-.65-1.39-2.03-.74-3.09l130.6-212.36c.41-.66 1.13-1.07 1.91-1.07h.01c.78 0 1.51.41 1.91 1.08l124.92 206.68c.64 1.06.3 2.44-.76 3.08-1.07.64-2.44.3-3.08-.76l-123.02-203.53-128.66 209.23c-.43.69-1.16 1.07-1.92 1.07z"/><path d="m855.09 1549.6h-7.95c-60.21 0-127.19-47.67-127.19-107.88h261.19c0 60.21-65.84 107.88-126.05 107.88z" fill="#fff"/><path d="m855.09 1551.85h-7.95c-59.86 0-129.44-48.11-129.44-110.13 0-1.24 1-2.25 2.25-2.25h261.19c1.24 0 2.25 1.01 2.25 2.25 0 28.89-14.66 56.69-41.28 78.27-24.99 20.24-56.7 31.86-87.02 31.86zm-132.87-107.89c1.66 58.4 67.86 103.39 124.91 103.39h7.95c28.88 0 60.35-11.54 84.19-30.86 24.85-20.15 38.84-45.82 39.59-72.53z"/><path d="m987.9 1448.53h-279.26c-4.42 0-8-3.58-8-8v-12.38c0-4.42 3.58-8 8-8h279.26c4.42 0 8 3.58 8 8v12.38c0 4.42-3.58 8-8 8z" fill="#fff"/><path d="m987.9 1450.78h-279.26c-5.65 0-10.25-4.6-10.25-10.25v-12.38c0-5.65 4.6-10.25 10.25-10.25h279.26c5.65 0 10.25 4.6 10.25 10.25v12.38c0 5.65-4.6 10.25-10.25 10.25zm-279.26-28.39c-3.17 0-5.76 2.58-5.76 5.76v12.38c0 3.17 2.58 5.76 5.76 5.76h279.26c3.17 0 5.76-2.58 5.76-5.76v-12.38c0-3.17-2.58-5.76-5.76-5.76z"/><path d="m1153.39 2151.57h-43.03l12.93-984.93c8.75 0 15.87 6.34 15.98 14.24z" fill="#fff"/><path d="m1153.39 2153.82h-43.03c-.6 0-1.18-.24-1.6-.67s-.65-1.01-.65-1.61l12.93-984.93c.02-1.23 1.02-2.22 2.25-2.22 9.92 0 18.1 7.38 18.23 16.45l14.12 970.69c.01.6-.22 1.18-.65 1.61-.42.44-1 .68-1.6.68zm-40.75-4.49h38.47l-14.08-968.42c-.09-5.96-5.08-10.93-11.52-11.86z"/><path d="m1101.02 988.13h18.26v563.39h-18.26z" fill="#fff" transform="matrix(-.1879 .9822 -.9822 -.1879 2565.9482 418.0341)"/><path d="m1385.12 1333.96c-.14 0-.28-.01-.42-.04l-553.35-105.86c-1.22-.23-2.02-1.41-1.78-2.63l3.43-17.93c.11-.58.45-1.1.95-1.44.49-.33 1.11-.46 1.68-.35l553.36 105.86c.59.11 1.1.45 1.44.94s.46 1.1.35 1.68l-3.43 17.93c-.24 1.1-1.18 1.84-2.23 1.84zm-550.73-109.89 548.95 105.02 2.59-13.52-548.95-105.02z"/><circle cx="848.05" cy="1220.45" fill="#fff" r="19.36"/><path d="m848.05 1242.05c-11.91 0-21.61-9.69-21.61-21.61s9.69-21.61 21.61-21.61c11.91 0 21.61 9.69 21.61 21.61s-9.7 21.61-21.61 21.61zm0-38.72c-9.44 0-17.12 7.68-17.12 17.12s7.68 17.12 17.12 17.12 17.12-7.68 17.12-17.12-7.68-17.12-17.12-17.12z"/><ellipse cx="1131.18" cy="1280.18" fill="#fff" rx="39.44" ry="39.44" transform="matrix(.2337 -.9723 .9723 .2337 -377.9008 2080.8694)"/><path d="m1131.18 1321.87c-22.98 0-41.68-18.7-41.68-41.69s18.7-41.69 41.68-41.69c22.99 0 41.69 18.7 41.69 41.69s-18.7 41.69-41.69 41.69zm0-78.89c-20.51 0-37.19 16.69-37.19 37.2s16.69 37.2 37.19 37.2c20.51 0 37.2-16.69 37.2-37.2s-16.69-37.2-37.2-37.2z"/><path d="m1244.07 1536.15c-.4 0-.81-.11-1.17-.33-1.06-.65-1.39-2.03-.74-3.09l130.6-212.36c.41-.66 1.13-1.07 1.91-1.07h.01c.78 0 1.51.41 1.91 1.08l124.92 206.68c.64 1.06.3 2.44-.76 3.08-1.07.64-2.44.3-3.08-.76l-123.02-203.53-128.67 209.23c-.42.69-1.16 1.07-1.91 1.07z"/><path d="m1379.21 1654.28h-7.95c-60.21 0-127.19-47.67-127.19-107.88h261.19c0 60.21-65.84 107.88-126.05 107.88z" fill="#fff"/><path d="m1379.21 1656.53h-7.95c-59.86 0-129.44-48.11-129.44-110.13 0-1.24 1-2.24 2.25-2.24h261.19c1.24 0 2.25 1.01 2.25 2.24 0 28.89-14.66 56.69-41.28 78.27-24.98 20.24-56.7 31.86-87.02 31.86zm-132.86-107.89c1.66 58.4 67.86 103.39 124.91 103.39h7.95c28.88 0 60.35-11.54 84.19-30.86 24.85-20.15 38.84-45.82 39.59-72.53z"/><path d="m1512.02 1553.21h-279.26c-4.42 0-8-3.58-8-8v-12.38c0-4.42 3.58-8 8-8h279.26c4.42 0 8 3.58 8 8v12.38c0 4.42-3.58 8-8 8z" fill="#fff"/><path d="m1512.02 1555.46h-279.26c-5.65 0-10.25-4.6-10.25-10.25v-12.38c0-5.65 4.6-10.25 10.25-10.25h279.26c5.65 0 10.25 4.6 10.25 10.25v12.38c0 5.65-4.6 10.25-10.25 10.25zm-279.26-28.39c-3.17 0-5.76 2.58-5.76 5.76v12.38c0 3.17 2.58 5.76 5.76 5.76h279.26c3.17 0 5.76-2.58 5.76-5.76v-12.38c0-3.17-2.58-5.76-5.76-5.76z"/><circle cx="1379.99" cy="1322.39" fill="#fff" r="19.36"/><path d="m1379.99 1344c-11.91 0-21.61-9.69-21.61-21.61 0-11.91 9.69-21.61 21.61-21.61s21.61 9.69 21.61 21.61c0 11.91-9.7 21.61-21.61 21.61zm0-38.73c-9.44 0-17.12 7.68-17.12 17.12s7.68 17.12 17.12 17.12 17.11-7.68 17.11-17.12c.01-9.44-7.67-17.12-17.11-17.12z"/><path d="m1784.69 1349.09v98.59c0 96.42-76.13 174.58-170.04 174.58s-170.04 78.16-170.04 174.58c0 8.59 6.96 15.56 15.54 15.56h450.11c140.79 0 254.92-117.17 254.92-261.71v-210.35c0-57.49-45.39-104.09-101.39-104.09h-169.17c-60.71-.02-109.93 50.51-109.93 112.84z" fill="#fff"/><path d="m1910.26 1814.63h-450.11c-9.81 0-17.79-7.99-17.79-17.8 0-97.5 77.29-176.82 172.29-176.82 92.52 0 167.8-77.31 167.8-172.33v-98.59c0-63.47 50.32-115.11 112.18-115.11h169.17c57.14 0 103.63 47.7 103.63 106.34v210.35c0 145.55-115.37 263.96-257.17 263.96zm-15.63-576.16c-59.38 0-107.69 49.62-107.69 110.62v98.59c0 97.5-77.29 176.82-172.29 176.82-92.52 0-167.8 77.31-167.8 172.33 0 7.34 5.97 13.31 13.3 13.31h450.11c139.32 0 252.67-116.4 252.67-259.47v-210.35c0-56.16-44.48-101.85-99.14-101.85z"/><path d="m1795.83 1634.72h40.79v474.92h-40.79z" fill="#fff"/><path d="m1836.61 2111.89h-40.79c-1.24 0-2.25-1.01-2.25-2.25v-474.92c0-1.24 1-2.25 2.25-2.25h40.79c1.24 0 2.25 1.01 2.25 2.25v474.92c0 1.25-1 2.25-2.25 2.25zm-38.54-4.49h36.3v-470.43h-36.3z"/><path d="m1625.05 2125.06 180.51-15.85h16.55l184.29 15.85v12.57h-381.35z" fill="#fff"/><path d="m2006.4 2139.87h-381.36c-1.24 0-2.25-1.01-2.25-2.25v-12.57c0-1.16.89-2.13 2.05-2.24l180.52-15.85 16.75-.01 184.48 15.86c1.16.1 2.05 1.07 2.05 2.24v12.57c.01 1.25-.99 2.25-2.24 2.25zm-379.11-4.49h376.87v-8.27l-182.24-15.67-16.36.01-178.27 15.66z"/><path d="m1693.28 2042.18c-4.19-4.23-28.37-79.48-28.37-79.48l-47.79 34.1 52.4 70.42z" fill="#fff"/><path d="m1669.51 2069.48c-.04 0-.09 0-.13 0-.66-.04-1.27-.37-1.67-.9l-52.4-70.42c-.36-.48-.51-1.09-.42-1.69s.42-1.13.91-1.48l47.8-34.1c.58-.42 1.33-.53 2.01-.3s1.21.76 1.43 1.44c9.18 28.55 24.85 75.13 27.85 78.61.75.87.81 2.27.01 3.1l-23.77 25.05c-.41.43-1 .69-1.62.69zm-49.23-72.17 49.44 66.44 20.75-21.87c-5.66-10.78-21.59-59.54-26.76-75.56z"/><path d="m1607.15 2137.32 31.79-.19c21.03-.12 40.59-10.81 52.06-28.44l31.43-49.76c8.68-13.75 3.83-31.97-10.54-39.6-13.12-6.97-26.86-13.76-30.08-13.46-6.54.62-9.18 31.56-9.18 31.56l-28.32 1.09s-13.99 58.17-26.3 64.79c-8.97 4.82-15.23 11.89-19.44 18.35-4.41 6.76.51 15.71 8.58 15.66z"/><g fill="#fff"><path d="m1610.35 2127.15c-1.09 0-2.05-.8-2.22-1.91-.18-1.23.66-2.37 1.89-2.55l43.48-6.55c9.12-1.37 17.07-6.7 21.81-14.62l38.42-64.18c.64-1.06 2.01-1.41 3.08-.77 1.06.64 1.41 2.02.77 3.08l-38.42 64.18c-5.43 9.07-14.54 15.18-24.99 16.75l-43.48 6.55c-.12.02-.24.02-.34.02z"/><path d="m1664.01 2078.89c-.2 0-.39-.03-.59-.08l-24.22-6.6c-1.2-.33-1.9-1.56-1.58-2.76s1.56-1.9 2.76-1.58l24.22 6.6c1.2.33 1.9 1.56 1.58 2.76-.28 1-1.18 1.66-2.17 1.66z"/><path d="m1651.4 2091.33c-.18 0-.36-.02-.54-.06l-16.24-3.97c-1.21-.29-1.94-1.51-1.65-2.71.3-1.21 1.53-1.94 2.71-1.65l16.24 3.97c1.21.29 1.94 1.51 1.65 2.71-.25 1.02-1.16 1.71-2.17 1.71z"/><path d="m1530.2 2027.83-55.49 55.75-29.42-10.8 51.15-71.33z"/></g><path d="m1474.71 2085.83c-.26 0-.52-.04-.77-.14l-29.42-10.8c-.66-.24-1.17-.78-1.37-1.45-.21-.67-.09-1.4.32-1.97l51.15-71.33c.36-.5.9-.83 1.5-.91.62-.09 1.22.08 1.7.45l33.75 26.38c.5.4.82.99.86 1.63s-.2 1.27-.65 1.72l-55.49 55.75c-.42.44-1 .67-1.58.67zm-25.88-14.14 25.3 9.29 52.69-52.94-29.92-23.38z"/><path d="m1492.24 2074.86s2.68 23.72-1.87 44.68c-2.42 11.17-12.49 19.03-23.92 19.03h-136.19c-9.73 0-14.15-12.15-6.69-18.4 24.21-20.29 68.76-51.26 123.53-60.36l15.28 21.38z"/><path d="m1477.88 2122.08h-141.14c-1.24 0-2.25-1.01-2.25-2.25s1-2.25 2.25-2.25h141.14c1.24 0 2.25 1.01 2.25 2.25s-1.01 2.25-2.25 2.25z" fill="#fff"/><path d="m1415.49 2097.01c-.88 0-1.72-.52-2.08-1.39l-7.47-18.12c-.47-1.15.07-2.46 1.22-2.93 1.14-.47 2.46.07 2.93 1.22l7.47 18.12c.47 1.15-.07 2.46-1.22 2.93-.27.12-.56.17-.85.17z" fill="#fff"/><path d="m1390.93 2101.78c-.94 0-1.82-.6-2.13-1.54l-5.4-16.35c-.39-1.18.25-2.45 1.43-2.84s2.45.25 2.84 1.43l5.4 16.35c.39 1.18-.25 2.45-1.43 2.84-.24.07-.48.11-.71.11z" fill="#fff"/><path d="m1823.92 1637.69s-253.6-29.52-329.01 35.76 119.04 345.99 119.04 345.99l61.49-45.6-58.33-198.41 234.43-66.58z"/><path d="m1963.49 1766.89c-36.84 11.69-102.75 26.81-194.88 25.55-26.18-.36-50.34 14.11-62.23 37.43-27.29 53.51-86.35 149.87-182.55 212.32l-45.95-24.76 117.27-263.99c10.71-24.1 30.73-42.84 55.49-51.92l232.42-85.23s72.07-20.14 107.4 44.19c6.31 11.49 18.03-9.05 20.82.22 9.58 31.79-16.15 96.15-47.79 106.19z"/><g fill="#fff"><path d="m1542.15 1874.98c-.3 0-.61-.06-.91-.19-1.13-.5-1.64-1.83-1.14-2.96l53-119.29c10.89-24.52 31.58-43.88 56.77-53.11l111.31-40.82c1.17-.42 2.46.17 2.88 1.34.43 1.16-.17 2.45-1.33 2.88l-111.31 40.82c-24.05 8.82-43.81 27.31-54.21 50.72l-53 119.29c-.37.82-1.19 1.32-2.06 1.32z"/><path d="m1604.03 1977.53c-.56 0-1.12-.21-1.56-.63-.89-.86-.92-2.28-.06-3.17 10.58-11 20.99-22.82 30.94-35.12.78-.96 2.19-1.11 3.16-.33.96.78 1.11 2.19.33 3.16-10.03 12.4-20.53 24.32-31.2 35.41-.43.45-1.02.68-1.61.68z"/><path d="m1635.1 1942.26c-.5 0-1-.16-1.41-.5-.96-.78-1.11-2.19-.33-3.16 4.88-6.03 9.75-12.31 14.49-18.67.74-.99 2.15-1.2 3.14-.46s1.2 2.15.46 3.14c-4.77 6.41-9.68 12.74-14.6 18.81-.44.56-1.09.84-1.75.84z"/><path d="m1979.47 1304.12c-29.06-6.83-41.18-6.92-146.8-3.1-25.82.93-56.52 33.33-59.56 58.99 8.21 24.61 46.07 146.09-20.03 241.02-9.38 13.47-22.13 28.24-39.64 42.4 9.84 7.95 25.12 18.31 45.64 24.4 34.08 10.12 51.21-.82 78.67 0 72.64 2.17 99.28 83.07 146.2 72.91 12.53-2.71 29.13-12.49 44.7-45.26 8.82-27.18 16.68-59.1 21.05-95.17 11.85-97.78-7.54-179.2-24.86-230.29-5.14-16.13-11.11-57.84-45.37-65.9z"/></g><path d="m1975.73 1743.89c-19.42 0-35.48-14.35-53.73-30.63-22.09-19.72-47.12-42.07-84.31-43.18-9.7-.29-18.27.95-26.56 2.14-14.95 2.15-30.42 4.38-52.68-2.23-16.51-4.9-32.12-13.25-46.42-24.81-.53-.43-.83-1.07-.83-1.75s.31-1.32.83-1.75c15.2-12.29 28.39-26.4 39.21-41.94 60.7-87.16 34.03-196.19 19.75-239.02-.11-.31-.14-.65-.1-.97 3.05-25.75 33.52-59.95 61.71-60.97 107.42-3.89 118.44-3.65 147.39 3.15 30.81 7.24 39.54 39.93 44.77 59.46.82 3.08 1.54 5.75 2.24 7.94 25.89 76.37 34.29 154.18 24.95 231.24-3.91 32.26-11.02 64.43-21.14 95.59-.03.09-.07.18-.11.27-12.81 26.98-28.38 42.62-46.25 46.49-3 .66-5.89.97-8.72.97zm-140.94-78.35c1 0 2.01.01 3.04.04 38.83 1.16 64.51 24.09 87.17 44.31 19.98 17.84 37.23 33.26 58.49 28.64 16.42-3.55 30.91-18.32 43.09-43.9 10-30.85 17.04-62.68 20.91-94.61 9.26-76.38.93-153.53-24.76-229.3-.74-2.33-1.47-5.04-2.31-8.18-4.96-18.56-13.26-49.62-41.45-56.25-28.42-6.68-39.34-6.91-146.2-3.04-23.62.86-53.97 30.85-57.35 56.52 14.54 43.8 41.16 154.02-20.48 242.52-10.54 15.14-23.29 28.95-37.9 41.09 13.24 10.3 27.6 17.79 42.71 22.28 21.32 6.33 35.62 4.27 50.77 2.09 7.59-1.08 15.44-2.21 24.27-2.21zm193.87 29.94h.02z"/><path d="m1749.66 1431.33c6-39.58 22.04-114.61 58.07-123.17-17.32 53.23-17.7 109.88-15.38 171.17 2.68 70.92-66.17 162.72-68.3 161.33-30.5.14-52.26-3.57-58.28-14.2l68.39-144.6c7.58-16.01 12.85-33.02 15.5-50.53z"/><path d="m1412.63 1442.27h178.71c7.53 0 14.53 3.75 18.55 9.94l67.05 197.36h158.18v2.96c0 9.32-7.56 16.88-16.88 16.88h-335.71c-9.32 0-16.88-7.56-16.88-16.88v-2.6l-60.6-184.54c-.92-2.81-2.06-5.54-3.11-8.3-2.64-6.95 2.58-14.82 10.69-14.82z" fill="#fff"/><path d="m1818.24 1671.65h-335.71c-10.54 0-19.12-8.58-19.12-19.12v-2.22l-60.49-184.22c-.64-1.95-1.41-3.93-2.16-5.84l-.91-2.36c-1.51-3.96-.95-8.45 1.51-12.01 2.56-3.72 6.67-5.85 11.27-5.85h178.71c8.34 0 15.97 4.1 20.43 10.96.1.16.18.32.24.5l66.53 195.84h156.57c1.24 0 2.25 1.01 2.25 2.25v2.96c.01 10.53-8.57 19.11-19.12 19.11zm-350.51-22.58c.11.26.17.55.17.85v2.6c0 8.07 6.56 14.63 14.63 14.63h335.71c8.07 0 14.63-6.56 14.63-14.63v-.71h-155.94c-.96 0-1.82-.61-2.13-1.52l-66.95-197.09c-3.65-5.45-9.8-8.69-16.52-8.69h-178.71c-3.1 0-5.87 1.42-7.58 3.91-1.61 2.34-1.99 5.28-1.01 7.86l.9 2.32c.77 1.97 1.56 4 2.25 6.08z"/><path d="m1531.99 1565.3c-2.85 0-5.7-.84-8.32-2.49-3.8-2.4-6.66-6.23-8.03-10.79-2.87-9.53 1.66-19.36 10.1-21.9 4.15-1.25 8.58-.59 12.49 1.88 3.8 2.4 6.66 6.23 8.03 10.79 2.87 9.53-1.66 19.36-10.1 21.9-1.37.41-2.77.61-4.17.61zm-2.1-31.31c-.96 0-1.92.14-2.85.42-6.07 1.83-9.26 9.15-7.1 16.31 1.06 3.52 3.24 6.47 6.13 8.29 2.78 1.75 5.91 2.25 8.79 1.37 6.07-1.83 9.26-9.15 7.1-16.31-1.06-3.52-3.24-6.47-6.13-8.29-1.88-1.18-3.92-1.79-5.94-1.79z"/><path d="m1640.27 1652.17h-116.47c-1.24 0-2.25-1.01-2.25-2.25s1-2.25 2.25-2.25h116.47c1.24 0 2.25 1.01 2.25 2.25s-1.01 2.25-2.25 2.25z"/><path d="m1891.53 1233.06-3.61 50.24c-.8 6.53-5.51 11.92-11.88 13.58l-17.65 4.6 11.45 8.72c25.39 19.33 60.55 23.29 85.97 4l18.12-13.75-21.92-4.9c-6.3-1.41-11.14-10.38-12.29-16.73l-9.68-66.48z" fill="#fff"/><path d="m1917.22 1329.18c-16.56 0-33.73-5.77-48.73-17.2l-11.45-8.72c-.68-.52-1.01-1.38-.84-2.23.17-.84.8-1.51 1.64-1.73l17.65-4.6c5.51-1.44 9.52-6.02 10.21-11.68l3.6-50.13c.05-.77.5-1.45 1.18-1.82l38.51-20.71c.64-.35 1.42-.36 2.07-.03.66.33 1.11.96 1.21 1.68l9.68 66.48c1.11 6.12 5.72 13.79 10.56 14.87l21.92 4.9c.85.19 1.52.86 1.71 1.71.18.85-.14 1.74-.84 2.27l-18.12 13.75c-11.63 8.82-25.57 13.19-39.96 13.19zm-53.79-26.69 7.78 5.92c26.43 20.12 59.89 21.73 83.25 4l14.26-10.82-17.2-3.84c-7.67-1.71-12.81-11.86-14.01-18.53l-9.23-63.38-34.6 18.61-3.52 49.01c-.92 7.61-6.24 13.69-13.55 15.59z"/><path d="m1834.45 1163.13c12.08-6.39 2.35 13.51 42.08-20.87 15.82-13.69 16.39 11.87 20.5 8.33 15.19-13.08 14.66-12.65 24.25-14.31 6.35-1.1 14.84 7.65 17.36 15.94 3.33 10.94-3.94 17.49-1.46 42.68 1.74 17.7 7.31 26.39 2.21 31.42-5.15 5.08-13.55-1.13-19.6 3.99-7.83 6.64 1.11 21.39-4.68 31.85-3.65 6.59-15.62 14.36-40.81 13.75-4.08-.1-7.54-3.1-8.2-7.15-.85-5.18-1.9-11.73-2.37-18.07-2.25-30.21 4.25-40.25-2.16-45.41-9.81-7.91-26.49 6.82-33.57-.12-7.34-7.21-10.09-33.28 6.45-42.03z"/><path d="m1894.54 1180.07-.5 8.25c-.24 3.89-.2 7.78.1 11.67.56 7.29 1.44 19.83 1.4 26.88-.06 10.37-32.11 12.39-32.11 12.39l-4.07-4.52-3.76.16c-.73.03-1.47-.09-2.12-.43-1.62-.84-2.42-2.58-2.14-4.25 1.52-9.16 4.17-29.37 1.23-45.09 0 0 17.82-14.47 41.97-5.06z" fill="#fff"/><path d="m1863.42 1241.51c-.64 0-1.24-.27-1.67-.74l-3.36-3.74-2.71.11c-1.15.05-2.3-.18-3.25-.68-2.43-1.27-3.76-3.92-3.32-6.61 1.34-8.12 4.16-28.69 1.24-44.31-.15-.81.15-1.64.79-2.16.77-.62 19.11-15.18 44.2-5.41.91.35 1.48 1.25 1.43 2.23l-.5 8.25c-.23 3.78-.2 7.61.1 11.36.54 7.03 1.45 19.89 1.4 27.07-.07 11.86-28.51 14.26-34.21 14.62-.04.01-.09.01-.14.01zm-4.06-9.01c.64 0 1.24.27 1.67.74l3.33 3.71c12.04-.91 28.89-4.62 28.92-10.09.04-7.02-.85-19.74-1.39-26.7-.31-3.96-.34-7.99-.1-11.98l.4-6.59c-18.91-6.63-33.26 1.81-37.17 4.52 2.55 15.49.2 34.4-1.47 44.47-.12.76.26 1.53.97 1.89.25.13.58.18.98.17l3.76-.16c.04.02.07.02.1.02z"/><path d="m1900.16 1205.5s1.18-19.84 10.08-17.34 7.05 24.32-10.08 17.34z" fill="#fff"/><path d="m1894.74 1359.7-38.59 96.17 28.5 64.06 36.97-55.91-12.73-102.51 19.43-26.79-14.65-21.06-12.16-1.59-16.84 18.92z" fill="#fff"/><path d="m1884.65 1522.18c-.06 0-.12 0-.19-.01-.82-.07-1.53-.58-1.87-1.32l-28.51-64.06c-.25-.55-.26-1.19-.03-1.75l38.28-95.39-9.79-27.92c-.27-.77-.1-1.63.44-2.24l16.84-18.92c.5-.55 1.23-.83 1.97-.73l12.16 1.6c.63.08 1.19.43 1.55.94l14.65 21.05c.55.78.54 1.83-.02 2.6l-18.91 26.08 12.62 101.63c.07.53-.06 1.07-.36 1.52l-36.97 55.92c-.4.62-1.11 1-1.86 1zm-26.06-66.35 26.45 59.45 34.25-51.81-12.63-101.69c-.07-.56.08-1.13.41-1.59l18.49-25.5-13.17-18.93-10-1.31-15.17 17.04 9.64 27.47c.18.51.17 1.07-.04 1.58z"/><path d="m1951.6 1358.84c11.64-20.61 21.17-47.21 8.28-63.99l-17.64-19.05s-1.41 33.72-29.14 36.39z" fill="#fff"/><path d="m1951.6 1361.09c-.67 0-1.3-.3-1.73-.82l-38.5-46.65c-.53-.64-.66-1.52-.34-2.29s1.03-1.3 1.86-1.38c25.43-2.45 27.05-32.96 27.11-34.25.04-.9.62-1.7 1.47-2.01.86-.31 1.81-.08 2.42.58l17.64 19.05c14.15 18.41 3.46 46.38-7.97 66.62-.36.64-1.02 1.07-1.76 1.13-.07.01-.14.02-.2.02zm-34.26-47.28 33.88 41.06c8.65-16.06 19.28-42.49 6.87-58.65l-14.22-15.35c-1.58 9.3-7.2 28.76-26.53 32.94z"/><path d="m1908.38 1312.22c-19.74-1.53-21.97-34.33-21.97-34.33s-20.28 13.69-24.3 33.9c-5.91 29.7 6.1 49.69 6.1 49.69z" fill="#fff"/><path d="m1868.22 1363.72c-.05 0-.11 0-.16-.01-.73-.05-1.39-.46-1.77-1.08-.51-.85-12.39-21.08-6.38-51.28 4.15-20.88 24.39-34.74 25.25-35.32.66-.45 1.52-.51 2.24-.16s1.2 1.06 1.26 1.86c.02.31 2.33 30.88 19.9 32.24.83.06 1.56.59 1.89 1.35.33.77.2 1.66-.32 2.3l-40.17 49.26c-.43.54-1.07.84-1.74.84zm16.41-81.65c-5.65 4.61-17.45 15.74-20.32 30.16-4.4 22.08 1.44 38.68 4.35 45.14l35.58-43.63c-14.05-4.09-18.37-23.19-19.61-31.67z"/><path d="m1880.21 1282.01c-10.74.36-31.68 9.56-45.3 10.05-25.82.93-56.52 33.33-59.56 58.99 8.21 24.61 46.07 146.09-20.03 241.01-9.38 13.47-22.13 28.24-39.64 42.4 9.84 7.95 25.12 18.31 45.64 24.4 15.15 4.5 26.95 4.83 37.8 3.89z"/><path d="m2027.09 1361.05c-5.15-16.13-15.28-58.08-46.75-73.82-11.95-5.98-27.38-15.6-38.85-16.44l-79.95 390.78c26.92 22.42 95.04 86.65 122.54 80.7 12.53-2.71 31.26-22.99 46.83-55.77 8.82-27.18 16.68-59.1 21.05-95.17 11.85-97.77-7.55-179.18-24.87-230.28z"/><path d="m1711.16 1661.26c-.54 0-.85-.03-.93-.04-1.23-.13-2.13-1.23-2.01-2.46.13-1.23 1.21-2.12 2.45-2.01.24.03 15.09.94 38.3-20.13.92-.83 2.34-.77 3.17.15s.77 2.34-.15 3.17c-21.93 19.91-37.01 21.32-40.83 21.32z"/><path d="m1726.12 1669.03c-1.03 0-1.62-.08-1.73-.1-1.23-.19-2.06-1.34-1.87-2.57.19-1.22 1.34-2.05 2.55-1.87.19.03 13.23 1.57 33.71-16.23.93-.81 2.35-.72 3.17.22.81.94.71 2.35-.22 3.17-18.17 15.78-31.1 17.38-35.61 17.38z"/><path d="m1731.18 1632.24c10.23-16.01 29.02-24.12 39.34-23.54 46.95 2.65 137.49-44.86 204.83-67.81 11.66-16.96 3.18-54.07 8.48-98.61l85.88 7.42c8.57 42.45 5.3 114.51-2.12 124.05-4.91 11.69-31.62 45.64-85.88 72.1-84.82 41.35-198.37 14.32-198.37 14.32s-57.55 30.42-82.39-2.64c0 .02 20.01-9.28 30.23-25.29z" fill="#fff"/><path d="m1735.44 1675.31c-13.49 0-26.96-4-36.29-16.41-.41-.54-.55-1.24-.38-1.89.16-.66.62-1.2 1.23-1.49.2-.09 19.54-9.23 29.29-24.48 10.25-16.04 29.49-25.24 41.36-24.57 31.56 1.78 84.03-19.83 134.8-40.73 23.2-9.55 47.18-19.42 68.46-26.72 6.08-9.54 5.95-25.96 5.78-46.63-.12-15-.26-31.99 1.93-50.36.14-1.2 1.19-2.09 2.42-1.97l85.88 7.42c.99.09 1.81.82 2.01 1.79 8.41 41.69 5.73 114.16-2.36 125.62-4.53 10.39-29.64 45.1-86.86 73-80.78 39.38-188.56 16.99-199.05 14.67-4.48 2.26-26.38 12.75-48.22 12.75zm-30.99-17.02c24.3 27.73 77.31.19 77.85-.1.48-.25 1.04-.33 1.57-.2 1.13.27 113.76 26.36 196.87-14.16 52.26-25.48 79.7-58.8 84.8-70.95.08-.18.18-.35.3-.51 6.65-8.56 10.06-78.46 2.01-120.58l-82.02-7.09c-1.89 17.27-1.76 33.37-1.65 47.64.18 21.91.32 39.21-6.97 49.82-.27.4-.67.7-1.13.85-21.32 7.27-45.52 17.23-68.92 26.87-51.24 21.09-104.2 42.89-136.76 41.06-9.3-.53-27.41 7-37.32 22.5-8.38 13.12-22.79 21.74-28.63 24.85zm26.74-26.05h.02z"/><path d="m2073.02 1571.45c1.55-2.25 2.46-4.87 2.69-7.59 1.52-17.71 5.81-83.8 5.78-84.3-.6-9.74-5.22-82.4-11.77-111.71-14.79-66.13-104.32-86.59-104.32-86.59 16.78 56.66 20.52 131.36 15.19 183.49-.26 2.52-4.09 49.57-4.16 69.73-.02 5.62-3.62 10.6-8.94 12.42l-175.44 60.13 8.22 66.5c126.99 3.49 221.15-27.17 272.75-102.08z"/><path d="m1901.43 1574.24c-.92 0-1.79-.57-2.11-1.49-.42-1.17.19-2.45 1.36-2.87 17.59-6.28 53.18-28.35 57.22-33-.24-8.66-2.35-90.82 1.52-137 .1-1.24 1.22-2.15 2.42-2.05 1.23.1 2.15 1.19 2.05 2.42-4.05 48.29-1.51 136.35-1.49 137.23.01.37-.07.74-.24 1.07-2.82 5.63-43.18 29.56-59.99 35.56-.24.09-.49.13-.74.13z" fill="#fff"/><path d="m1769.89 1556.09c-.09 0-.17 0-.26-.02-1.23-.14-2.11-1.26-1.97-2.49 6.83-59.06 17.57-160.95 17.67-161.97.13-1.23 1.25-2.12 2.47-2 1.23.13 2.13 1.24 2 2.47-.11 1.02-10.84 102.94-17.68 162.02-.14 1.15-1.11 1.99-2.23 1.99z" fill="#fff"/><path d="m1810.26 2151.19 99.31-412.12 99.3 412.12h23.8l-109.1-456.14-27.99-.04-109.12 456.18z" fill="#fff"/><path d="m2032.68 2153.43h-23.8c-1.04 0-1.94-.71-2.18-1.72l-97.12-403.06-97.12 403.06c-.24 1.01-1.14 1.72-2.18 1.72h-23.8c-.69 0-1.34-.31-1.76-.85-.43-.54-.58-1.25-.42-1.91l109.12-456.18c.24-1.01 1.14-1.72 2.18-1.72l27.99.04c1.04 0 1.94.71 2.18 1.72l109.11 456.14c.16.67 0 1.37-.42 1.91-.45.54-1.1.85-1.78.85zm-22.04-4.49h19.19l-108.04-451.65-24.44-.04-108.04 451.69h19.19l98.89-410.4c.24-1.01 1.14-1.72 2.18-1.72s1.94.71 2.18 1.72z"/><path d="m1246.18 2149.77 99.3-412.11 99.31 412.11h23.8l-109.11-456.14-27.99-.04-109.11 456.18z" fill="#fff"/><path d="m1468.59 2152.02h-23.8c-1.04 0-1.94-.71-2.18-1.72l-97.12-403.06-97.12 403.06c-.24 1.01-1.14 1.72-2.18 1.72h-23.8c-.69 0-1.34-.31-1.76-.85-.43-.54-.58-1.25-.42-1.91l109.12-456.18c.24-1.01 1.14-1.72 2.18-1.72l27.99.04c1.04 0 1.94.71 2.18 1.72l109.11 456.14c.16.67 0 1.37-.42 1.91-.44.53-1.09.85-1.78.85zm-22.03-4.49h19.19l-108.04-451.65-24.44-.04-108.04 451.69h19.19l98.89-410.39c.24-1.01 1.14-1.72 2.18-1.72s1.94.71 2.18 1.72z"/><path d="m1232.94 1665.7h783.28v37.26h-783.28z" fill="#fff"/><path d="m2016.22 1705.21h-783.28c-1.24 0-2.25-1.01-2.25-2.25v-37.26c0-1.24 1-2.25 2.25-2.25h783.28c1.24 0 2.25 1.01 2.25 2.25v37.26c0 1.24-1.01 2.25-2.25 2.25zm-781.03-4.49h778.79v-32.77h-778.79z"/><path d="m1779.06 1696.46c-1.24 0-2.25-1.01-2.25-2.25v-20.75c0-1.24 1-2.25 2.25-2.25s2.25 1.01 2.25 2.25v20.75c-.01 1.24-1.01 2.25-2.25 2.25z"/></svg>