<?xml version="1.0" encoding="utf-8"?>
<!-- Generator: Adobe Illustrator 27.9.0, SVG Export Plug-In . SVG Version: 6.00 Build 0)  -->
<svg version="1.1" xmlns="http://www.w3.org/2000/svg" xmlns:xlink="http://www.w3.org/1999/xlink" x="0px" y="0px"
	 viewBox="0 0 2500 2500" style="enable-background:new 0 0 2500 2500;" xml:space="preserve">
<style type="text/css">
	.st0{fill:none;stroke:#FFFFFF;stroke-width:20;stroke-miterlimit:10;}
</style>
<g id="Background">
</g>
<g id="Illustration">
	<g>
		<g>
			<path class="st0" d="M235.57,673.55c-1.01,0-2.03-0.27-2.96-0.84c-2.67-1.64-3.5-5.13-1.86-7.79l329.36-535.57
				c1.03-1.68,2.85-2.7,4.82-2.7c0.01,0,0.02,0,0.02,0c1.97,0.01,3.8,1.04,4.82,2.73l315.04,521.25c1.62,2.68,0.76,6.16-1.91,7.77
				c-2.69,1.62-6.17,0.75-7.77-1.92L564.9,143.19L240.4,670.85C239.33,672.59,237.47,673.55,235.57,673.55z"/>
			<g>
				<path class="st0" d="M576.4,971.47h-20.05c-151.85,0-320.77-120.23-320.77-272.08l658.73,0
					C894.31,851.24,728.25,971.47,576.4,971.47z"/>
				<path class="st0" d="M576.4,977.14h-20.05c-150.96,0-326.43-121.32-326.43-277.75c0-3.13,2.53-5.66,5.66-5.66h658.73
					c3.13,0,5.66,2.54,5.66,5.66c0,72.86-36.97,142.96-104.11,197.38C732.86,947.85,652.87,977.14,576.4,977.14z M241.32,705.05
					c4.19,147.29,171.15,260.76,315.03,260.76h20.05c72.83,0,152.21-29.1,212.33-77.83c62.68-50.81,97.96-115.57,99.84-182.92
					H241.32z"/>
			</g>
			<g>
				<path class="st0" d="M923.54,716.58H194.89c-4.42,0-8-3.58-8-8v-55.59c0-4.42,3.58-8,8-8h728.64c4.42,0,8,3.58,8,8v55.59
					C931.54,712.99,927.96,716.58,923.54,716.58z"/>
				<path class="st0" d="M911.36,722.24H207.07c-14.25,0-25.85-11.59-25.85-25.85v-31.23c0-14.25,11.6-25.85,25.85-25.85h704.28
					c14.25,0,25.85,11.6,25.85,25.85v31.23C937.2,710.64,925.61,722.24,911.36,722.24z M207.07,650.64
					c-8.01,0-14.52,6.51-14.52,14.52v31.23c0,8.01,6.51,14.52,14.52,14.52h704.28c8.01,0,14.52-6.51,14.52-14.52v-31.23
					c0-8.01-6.51-14.52-14.52-14.52H207.07z"/>
			</g>
		</g>
		<g>
			<path class="st0" d="M1328.73,2489.64h-108.51l32.6-2483.98c22.06,0,40.02,16,40.31,35.9L1328.73,2489.64z"/>
			<path class="st0" d="M1328.72,2495.31h-108.51c-1.51,0-2.96-0.61-4.03-1.68c-1.06-1.08-1.65-2.54-1.63-4.05l32.6-2483.98
				c0.04-3.1,2.57-5.59,5.66-5.59c25.02,0,45.64,18.61,45.97,41.48l35.6,2448.08c0.02,1.52-0.56,2.98-1.63,4.06
				C1331.69,2494.7,1330.24,2495.31,1328.72,2495.31z M1225.95,2483.98h97.03L1287.46,41.65c-0.22-15.04-12.81-27.55-29.06-29.92
				L1225.95,2483.98z"/>
		</g>
		<g>
			
				<rect x="1196.65" y="-444.56" transform="matrix(-0.1879 0.9822 -0.9822 -0.1879 1709.9795 -882.1239)" class="st0" width="46.05" height="1420.87"/>
			<path class="st0" d="M1913.13,427.64c-0.35,0-0.71-0.03-1.07-0.1L516.51,160.56c-3.07-0.59-5.09-3.56-4.5-6.63l8.65-45.23
				c0.28-1.47,1.14-2.78,2.38-3.62c1.24-0.84,2.79-1.15,4.24-0.88l1395.56,266.98c1.48,0.28,2.78,1.14,3.62,2.38
				c0.85,1.24,1.16,2.77,0.88,4.24l-8.65,45.23C1918.17,425.75,1915.8,427.64,1913.13,427.64z M524.2,150.5l1384.43,264.85
				l6.52-34.11L530.72,116.39L524.2,150.5z"/>
		</g>
		<g>
			<circle class="st0" cx="558.65" cy="141.35" r="48.83"/>
			<path class="st0" d="M558.66,195.84c-30.05,0-54.49-24.44-54.49-54.49c0-30.05,24.45-54.49,54.49-54.49
				c30.05,0,54.49,24.45,54.49,54.49C613.14,171.4,588.7,195.84,558.66,195.84z M558.66,98.18c-23.8,0-43.17,19.36-43.17,43.17
				c0,23.8,19.36,43.17,43.17,43.17c23.8,0,43.16-19.36,43.16-43.17C601.82,117.55,582.46,98.18,558.66,98.18z"/>
		</g>
		<g>
			
				<ellipse transform="matrix(0.2337 -0.9723 0.9723 0.2337 691.3741 1461.2225)" class="st0" cx="1272.71" cy="291.99" rx="99.47" ry="99.47"/>
			<path class="st0" d="M1272.7,397.13c-57.97,0-105.13-47.16-105.13-105.13c0-57.97,47.16-105.13,105.13-105.13
				c57.97,0,105.13,47.16,105.13,105.13C1377.84,349.97,1330.68,397.13,1272.7,397.13z M1272.7,198.19
				c-51.72,0-93.8,42.08-93.8,93.81c0,51.73,42.08,93.81,93.8,93.81c51.73,0,93.81-42.08,93.81-93.81
				C1366.51,240.27,1324.43,198.19,1272.7,198.19z"/>
		</g>
		<g>
			<path class="st0" d="M1557.4,937.55c-1.01,0-2.03-0.27-2.96-0.84c-2.67-1.64-3.5-5.13-1.86-7.79l329.36-535.58
				c1.03-1.68,2.85-2.7,4.82-2.7c0.01,0,0.02,0,0.02,0c1.97,0.01,3.8,1.04,4.82,2.73l315.04,521.26c1.62,2.68,0.76,6.16-1.91,7.77
				c-2.7,1.61-6.16,0.75-7.77-1.92l-310.24-513.31l-324.5,527.67C1561.16,936.59,1559.3,937.55,1557.4,937.55z"/>
			<g>
				<path class="st0" d="M1898.23,1235.48h-20.05c-151.85,0-320.77-120.23-320.77-272.08l658.73,0
					C2216.14,1115.24,2050.08,1235.48,1898.23,1235.48z"/>
				<path class="st0" d="M1898.23,1241.14h-20.05c-150.96,0-326.43-121.32-326.43-277.75c0-3.13,2.53-5.66,5.66-5.66h658.73
					c3.13,0,5.66,2.54,5.66,5.66c0,72.86-36.97,142.96-104.11,197.38C2054.69,1211.85,1974.7,1241.14,1898.23,1241.14z
					 M1563.15,969.06c4.19,147.29,171.15,260.76,315.03,260.76h20.05c72.83,0,152.21-29.1,212.33-77.83
					c62.68-50.81,97.96-115.57,99.84-182.92H1563.15z"/>
			</g>
			<g>
				<path class="st0" d="M2245.36,980.58h-728.64c-4.42,0-8-3.58-8-8v-55.59c0-4.42,3.58-8,8-8h728.64c4.42,0,8,3.58,8,8v55.59
					C2253.37,976.99,2249.78,980.58,2245.36,980.58z"/>
				<path class="st0" d="M2233.18,986.24H1528.9c-14.25,0-25.85-11.6-25.85-25.85v-31.23c0-14.25,11.6-25.85,25.85-25.85h704.28
					c14.25,0,25.85,11.59,25.85,25.85v31.23C2259.03,974.64,2247.43,986.24,2233.18,986.24z M1528.9,914.64
					c-8.01,0-14.52,6.51-14.52,14.52v31.23c0,8.01,6.51,14.52,14.52,14.52h704.28c8.01,0,14.52-6.51,14.52-14.52v-31.23
					c0-8.01-6.51-14.52-14.52-14.52H1528.9z"/>
			</g>
		</g>
		<g>
			<circle class="st0" cx="1900.2" cy="398.44" r="48.83"/>
			<path class="st0" d="M1900.2,452.94c-30.05,0-54.49-24.45-54.49-54.49c0-30.05,24.45-54.49,54.49-54.49
				c30.05,0,54.49,24.44,54.49,54.49C1954.69,428.49,1930.25,452.94,1900.2,452.94z M1900.2,355.28c-23.8,0-43.17,19.36-43.17,43.17
				c0,23.81,19.36,43.17,43.17,43.17c23.8,0,43.16-19.36,43.16-43.17C1943.37,374.64,1924,355.28,1900.2,355.28z"/>
		</g>
	</g>
</g>
</svg>
