<?xml version="1.0" encoding="utf-8"?>
<!-- Generator: Adobe Illustrator 27.9.0, SVG Export Plug-In . SVG Version: 6.00 Build 0)  -->
<svg version="1.1" id="Layer_1" xmlns="http://www.w3.org/2000/svg" xmlns:xlink="http://www.w3.org/1999/xlink" x="0px" y="0px"
	 viewBox="0 0 850 400" style="enable-background:new 0 0 850 400;" xml:space="preserve">
<style type="text/css">
	.st0{fill:none;stroke:#FFFFFF;stroke-width:3;stroke-miterlimit:10;}
	.st1{opacity:0.1294;}
	.st2{fill:none;stroke:#FFFFFF;stroke-width:4;stroke-miterlimit:10;}
</style>
<g>
	<g>
		<g>
			<path class="st0" d="M545.28,84.32c-2.07,0.26-4.03-1.16-5.2-2.89c-1.74-2.59-2.17-6.01-1.11-8.95c0.52-1.44,1.36-2.74,2.19-4.02
				c3.07-4.73,6.16-9.48,9.86-13.74c0.44-0.51,1.04-1.06,1.7-0.9c0.53,0.13,0.85,0.7,0.87,1.25c0.02,0.55-0.2,1.07-0.41,1.57
				c-1.12,2.62-2.23,5.25-3.35,7.87c-0.16,0.38-0.31,0.85-0.05,1.16c0.17,0.2,0.45,0.26,0.72,0.28c1.54,0.1,2.96-0.76,4.19-1.69
				c4.05-3.03,7.31-6.98,11.08-10.36c0.42-0.38,0.93-0.78,1.49-0.72c0.64,0.07,1.09,0.74,1.13,1.39c0.04,0.65-0.22,1.27-0.46,2.1
				c0.77-0.94,1.84-1.6,2.9-2.19c0.35-0.19,0.71-0.39,1.1-0.45c0.39-0.06,0.83,0.02,1.11,0.31c0.32,0.35,0.33,0.88,0.26,1.36
				c-0.09,0.64-0.27,1.26-0.59,2c0.25-0.19,0.5-0.38,0.79-0.51c0.29-0.12,0.62-0.17,0.91-0.07c0.32,0.12,0.56,0.4,0.68,0.72
				c0.12,0.32,0.14,0.67,0.14,1.01c-0.02,0.71-0.15,1.42-0.17,2.15c0.49,0.09,0.8,0.61,0.82,1.11c0.02,0.5-0.19,0.97-0.42,1.41
				c-1.28,2.49-3.22,4.58-5.13,6.63c-1.46,1.57-2.93,3.15-4.66,4.42c-0.85,0.62-1.75,1.17-2.65,1.71c-1.02,0.62-2.05,1.24-3.16,1.69
				c-0.87,0.35-1.78,0.6-2.69,0.86c-2.24,0.65-4.44,1.4-6.61,2.26C548.75,81.83,546.92,82.65,545.28,84.32z"/>
		</g>
		<g>
			<path class="st0" d="M559.95,64.84c-0.19,0-0.38-0.09-0.51-0.26c-0.2-0.28-0.13-0.67,0.15-0.86c2.82-2,5.37-4.36,7.61-7
				c1.87-2.21,3.53-3.33,4.94-3.33c0,0,0.01,0,0.01,0c0.56,0,1.07,0.2,1.35,0.53c0.91,1.06,0.21,2.87-0.13,3.74
				c-0.04,0.09-0.07,0.17-0.08,0.21c-0.06,0.3-0.32,0.52-0.64,0.5c-0.34-0.02-0.6-0.31-0.58-0.65c0.01-0.14,0.05-0.25,0.15-0.51
				c0.51-1.32,0.63-2.16,0.34-2.49c0,0,0,0,0,0c0,0-0.15-0.11-0.5-0.09c-0.58,0.04-1.86,0.46-3.91,2.89
				c-2.3,2.72-4.94,5.14-7.84,7.21C560.2,64.8,560.08,64.84,559.95,64.84z M573.3,57.79C573.3,57.79,573.3,57.79,573.3,57.79
				C573.3,57.79,573.3,57.79,573.3,57.79z"/>
		</g>
		<g>
			<path class="st0" d="M536.21,77.81c-0.06,0-0.13-0.01-0.2-0.03c-0.32-0.11-0.5-0.46-0.39-0.78c2.16-6.49,6.07-11.41,9.2-15.36
				c1.16-1.46,2.25-2.83,3.08-4.08c0.87-1.3,1.86-2.78,3.31-3.76c0.81-0.54,1.59-0.65,2.19-0.29c0.81,0.48,0.97,1.56,0.43,2.89
				c-1.02,2.48-2.15,4.95-3.37,7.34c-0.29,0.57-0.4,1.3-0.25,1.6c0.03,0.05,0.05,0.08,0.14,0.09c0.12,0.02,0.32-0.05,0.45-0.1
				c3.58-1.23,6.46-3.93,9.24-6.54c0.28-0.26,0.55-0.52,0.83-0.77c0.59-0.55,1.24-1.22,1.86-1.87c2.18-2.27,4.07-4.23,5.48-3.45
				c0.49,0.27,0.74,0.82,0.76,1.64c0.02,1.05-0.49,3.1-1.09,3.46c-0.29,0.18-0.67,0.08-0.85-0.21c-0.16-0.26-0.1-0.59,0.12-0.78
				c0.37-0.54,0.83-2.73,0.46-3.01c-0.58-0.32-2.79,1.99-3.98,3.22c-0.64,0.66-1.3,1.35-1.91,1.92c-0.28,0.26-0.55,0.51-0.83,0.77
				c-2.88,2.7-5.86,5.48-9.68,6.8c-0.24,0.08-0.63,0.22-1.06,0.15c-0.46-0.08-0.83-0.35-1.04-0.76c-0.39-0.77-0.16-1.92,0.25-2.72
				c1.2-2.36,2.32-4.8,3.33-7.25c0.23-0.56,0.33-1.2,0.09-1.35c-0.16-0.09-0.5,0.01-0.86,0.25c-1.25,0.84-2.13,2.15-2.98,3.42
				c-0.87,1.29-1.97,2.69-3.14,4.16c-3.08,3.88-6.9,8.7-9,14.98C536.71,77.65,536.47,77.81,536.21,77.81z"/>
		</g>
		<g>
			<path class="st0" d="M562.81,67.34c-0.2,0-0.4-0.1-0.52-0.27c-0.19-0.28-0.11-0.67,0.17-0.86c3.41-2.28,6.48-5.03,9.12-8.16
				l0.04-0.04c0.34-0.41,0.73-0.87,1.26-1.17c0.71-0.41,1.56-0.42,2.15-0.02c1.22,0.82,1.02,2.86,0.28,4.52
				c-0.14,0.31-0.5,0.45-0.82,0.31c-0.31-0.14-0.45-0.51-0.31-0.82c0.66-1.48,0.6-2.7,0.17-2.99c-0.2-0.13-0.54-0.1-0.84,0.07
				c-0.34,0.2-0.63,0.54-0.93,0.9l-0.04,0.04c-2.72,3.22-5.88,6.04-9.38,8.39C563.05,67.3,562.93,67.34,562.81,67.34z"/>
		</g>
		<g>
			<path class="st0" d="M545.4,84.82c-0.17,0-0.34-0.07-0.46-0.2c-0.23-0.25-0.21-0.65,0.04-0.88c2.61-2.38,6.02-3.42,9.32-4.42
				c1.15-0.35,2.34-0.71,3.46-1.13c4.84-1.77,9.2-4.75,12.61-8.62c0.53-0.66,1.06-1.25,1.59-1.82c0.58-0.63,1.12-1.23,1.59-1.87
				c0.96-1.3,1.5-2.65,1.56-3.92c0.01-0.26-0.02-0.33-0.03-0.33c-0.02,0-0.2,0.03-0.42,0.17c-0.57,0.35-1.04,0.85-1.55,1.37
				l-0.11,0.12c-2.4,2.49-5.03,4.79-7.83,6.82c-0.28,0.2-0.66,0.14-0.87-0.14c-0.2-0.28-0.14-0.66,0.14-0.87
				c2.74-1.99,5.32-4.24,7.67-6.68l0.11-0.12c0.54-0.56,1.09-1.14,1.79-1.57c0.73-0.45,1.47-0.45,1.94,0
				c0.4,0.38,0.42,0.92,0.4,1.29c-0.08,1.51-0.7,3.1-1.8,4.59c-0.51,0.69-1.08,1.31-1.68,1.97c-0.51,0.56-1.03,1.13-1.55,1.79
				c-3.56,4.04-8.1,7.14-13.13,8.99c-1.16,0.42-2.36,0.79-3.53,1.15c-3.32,1.01-6.45,1.97-8.85,4.15
				C545.7,84.76,545.55,84.82,545.4,84.82z"/>
		</g>
	</g>
	<g>
		<path class="st0" d="M437.47,377.38c-1.19,5.62-2.18,11.3-2.96,17.02c-0.11,0.79-0.16,3.23,0.37,3.75c0.41,0.4,21.61,1.16,32.78,0
			c0.23-2.32-0.76-6.37-2.47-7.66c-2.12-1.6-13.17-1.41-15.28-3.03c-3.2-2.46-3.24-7.73-2.94-12.13
			C443.56,375.11,440.09,375.69,437.47,377.38z"/>
		<path class="st0" d="M451.67,399.38c-1.68,0-3.2-0.01-4.44-0.03c-3.16-0.04-6.24-0.13-8.65-0.25c-3.8-0.19-3.93-0.31-4.13-0.51
			c-0.92-0.9-0.55-4.24-0.55-4.28c0.77-5.71,1.77-11.45,2.96-17.06c0.03-0.16,0.13-0.3,0.27-0.39c2.53-1.63,6.04-2.39,9.89-2.14
			c0.16,0.01,0.32,0.09,0.43,0.21c0.11,0.12,0.16,0.29,0.15,0.45c-0.29,4.21-0.25,9.33,2.7,11.59c0.92,0.71,4.35,1.08,7.37,1.4
			c3.45,0.37,6.71,0.72,7.9,1.62c2,1.5,2.94,5.87,2.71,8.21c-0.03,0.29-0.26,0.53-0.55,0.56
			C462.91,399.26,456.59,399.38,451.67,399.38z M435.27,397.61c2.13,0.35,21,1.01,31.81-0.03c0.04-2.26-0.92-5.59-2.25-6.6
			c-0.92-0.69-4.31-1.06-7.29-1.38c-3.49-0.38-6.79-0.73-7.99-1.65c-3.24-2.5-3.49-7.41-3.22-12.03c-3.23-0.12-6.14,0.53-8.3,1.84
			c-1.16,5.5-2.14,11.12-2.89,16.71C435,395.43,435.06,397.11,435.27,397.61z M435.32,397.71L435.32,397.71L435.32,397.71z"/>
	</g>
	<g>
		<path class="st0" d="M366.44,375.29c1.2,5.63-3.79,22.33-4.32,22.86c-0.41,0.4-21.61,1.16-32.78,0c-0.23-2.32,0.76-6.37,2.47-7.66
			c2.12-1.6,13.17-1.41,15.28-3.03c3.2-2.46,9.92-7.78,9.61-12.17C360.11,375.07,363.81,373.6,366.44,375.29z"/>
		<path class="st0" d="M345.32,399.38c-4.92,0-11.23-0.12-16.06-0.62c-0.29-0.03-0.52-0.26-0.55-0.56
			c-0.23-2.34,0.71-6.71,2.71-8.21c1.19-0.9,4.45-1.25,7.9-1.62c3.02-0.33,6.45-0.69,7.37-1.4c2.39-1.84,9.66-7.43,9.37-11.64
			c-0.01-0.16,0.04-0.33,0.15-0.45c0.11-0.12,0.26-0.2,0.43-0.21c0.95-0.06,1.96-0.23,2.93-0.39c2.52-0.42,5.13-0.85,7.2,0.48
			c0.14,0.09,0.24,0.23,0.27,0.39c1.24,5.85-3.72,22.67-4.5,23.43c-0.2,0.19-0.33,0.32-4.13,0.51c-2.42,0.12-5.49,0.21-8.65,0.25
			C348.52,399.37,347,399.38,345.32,399.38z M329.91,397.58c10.77,1.03,29.54,0.39,31.79,0.03c0.91-1.99,5.07-16.6,4.18-21.94
			c-1.64-0.91-3.81-0.55-6.11-0.17c-0.81,0.13-1.64,0.27-2.47,0.35c-0.28,4.72-7.18,10.04-9.85,12.09c-1.2,0.92-4.5,1.28-7.99,1.65
			c-2.99,0.32-6.37,0.69-7.29,1.38C330.83,391.99,329.87,395.32,329.91,397.58z M361.62,397.77L361.62,397.77L361.62,397.77z"/>
	</g>
	<g class="st1">
		<path class="st0" d="M364.82,378.64c-0.03,0.01-0.05,0.01-0.08,0.02c-2.16,0.02-4.31,0.17-6.47,0.22c-0.96,0.11-2-0.35-2.92,0.02
			c-1.69,0.65-1.15,3.25,0.65,3.23c2.45,0.24,4.95,0.36,7.4,0.16c0.48-0.04,0.96-0.12,1.45-0.14c0.46-0.02,0.93-0.02,1.33-0.27
			C367.94,380.83,366.8,378.11,364.82,378.64z"/>
	</g>
	<g class="st1">
		<path class="st0" d="M445.96,379.81c-2.04-0.13-4.09-0.11-6.13-0.11c-0.65,0-1.3-0.03-1.95-0.05c-0.35-0.01-0.73-0.07-1.05,0.11
			c-1.47,0.56-1,2.83,0.57,2.82c2.26,0.18,4.53,0.23,6.8,0.28c0.78-0.04,1.63,0.23,2.36-0.07
			C448.12,382.19,447.62,379.79,445.96,379.81z"/>
	</g>
	<g>
		<path class="st0" d="M407.37,195.56c-5.87-9.24-19.84-26.06-26.77-34.53c1.03-3.82,17.01-18.69,25.04-28.25
			c4.18,38.28,1.25,47.92,7.95,54.18c9.05,8.45,49.31,9.93,54.23,5.16c3.23-3.13,5.73-8.44,6.2-12.33
			c1.89-15.67-1.22-35.26-1.81-51.04c9.37,8.43,32,21.29,43.41,17c13.51-5.08,25.67-37.72,34.32-61.35
			c-7.31-2.31-13.79-6.09-17.66-9.95c-12.01,23.06-17.2,47.02-26.76,46.25c-5.99-0.48-25.72-20.14-41.37-25.54
			c-10.97-3.78-47.79-0.45-54.09,1.41c-13.67,4.05-52.4,47.23-53.35,61.1c-1.13,16.65,32.46,40.68,40.05,50.25
			C398.3,204.08,403.71,197.64,407.37,195.56z"/>
		<path class="st0" d="M396.76,208.55c-0.19,0-0.37-0.09-0.49-0.23c-2.08-2.62-6.19-6.4-10.96-10.77
			c-12.69-11.64-30.06-27.58-29.22-39.91c0.52-7.69,11.74-22.91,22.05-34.6c9.74-11.03,23.89-24.73,31.73-27.05
			c6.47-1.92,43.45-5.2,54.47-1.41c8.8,3.03,18.89,10.54,27,16.58c6.3,4.68,11.73,8.73,14.22,8.93
			c5.97,0.46,10.44-10.22,16.11-23.76c2.86-6.83,6.09-14.56,10.05-22.16c0.09-0.18,0.26-0.3,0.46-0.33c0.2-0.03,0.39,0.03,0.53,0.17
			c3.94,3.94,10.45,7.6,17.41,9.8c0.16,0.05,0.29,0.17,0.37,0.32c0.07,0.15,0.08,0.33,0.03,0.49
			c-8.23,22.48-20.68,56.44-34.69,61.72c-11.32,4.26-32.91-7.66-42.95-16.17c0.21,4.62,0.61,9.5,1.04,14.63
			c0.99,11.98,2,24.36,0.71,35.07c-0.52,4.27-3.2,9.61-6.39,12.7c-2.9,2.81-15.53,3.29-26.04,2.55c-5.27-0.37-22.96-2.02-29.04-7.7
			c-4.5-4.2-4.83-9.84-5.63-23.47c-0.42-7.12-0.99-16.77-2.36-29.66c-3.09,3.58-7.09,7.74-10.96,11.78
			c-5.87,6.12-11.92,12.44-12.92,14.84l1.86,2.27c7.25,8.84,19.38,23.64,24.73,32.06c0.09,0.14,0.12,0.32,0.08,0.48
			c-0.04,0.16-0.15,0.31-0.29,0.39c-3.4,1.94-8.81,8.25-10.33,12.06c-0.08,0.2-0.27,0.35-0.49,0.38
			C396.82,208.55,396.79,208.55,396.76,208.55z M446.63,94.03c-14.5,0-32.14,1.87-36.4,3.14c-6.15,1.82-18.67,12.55-31.16,26.69
			c-12.8,14.49-21.33,27.79-21.75,33.86c-0.8,11.73,16.32,27.44,28.82,38.91c4.36,4,8.19,7.51,10.45,10.14
			c1.91-3.86,6.54-9.21,9.9-11.41c-5.47-8.44-17.22-22.77-24.3-31.41l-2.08-2.54c-0.13-0.15-0.17-0.36-0.12-0.55
			c0.66-2.46,6.53-8.58,13.32-15.67c4.26-4.45,8.67-9.05,11.84-12.82c0.16-0.19,0.42-0.27,0.65-0.19c0.24,0.07,0.41,0.28,0.44,0.53
			c1.49,13.64,2.08,23.76,2.52,31.15c0.78,13.28,1.1,18.78,5.24,22.64c4.6,4.29,17.63,6.62,28.28,7.37
			c12.13,0.85,22.91-0.1,25.09-2.21c2.95-2.86,5.54-8,6.02-11.96c1.28-10.58,0.27-22.9-0.71-34.82c-0.47-5.68-0.91-11.05-1.1-16.12
			c-0.01-0.25,0.13-0.48,0.36-0.58c0.23-0.11,0.49-0.07,0.68,0.1c9.02,8.12,31.66,21.07,42.78,16.88
			c13.35-5.03,25.58-38.11,33.74-60.38c-6.57-2.16-12.7-5.59-16.69-9.32c-3.76,7.32-6.87,14.75-9.63,21.33
			c-5.93,14.19-10.26,24.53-16.84,24.54c-0.17,0-0.34-0.01-0.51-0.02c-2.84-0.23-8.14-4.17-14.86-9.17
			c-8.04-5.98-18.05-13.43-26.67-16.4C460.34,94.5,453.88,94.03,446.63,94.03z"/>
	</g>
	<g>
		<path class="st0" d="M435.05,103.57c-1.99,3.1-3.99,6.19-6.44,9.41c-3.96-6.15-7.97-12.49-10.19-19.46
			c1.35-0.8,4.24-3.14,5.59-3.94c-0.26,1.55-0.97,3-0.72,3.46C423.46,93.33,431.17,100.58,435.05,103.57z"/>
		<path class="st0" d="M428.61,113.6c-0.01,0-0.02,0-0.02,0c-0.2-0.01-0.39-0.11-0.5-0.28c-3.73-5.79-7.95-12.35-10.26-19.61
			c-0.09-0.28,0.03-0.57,0.28-0.72c0.65-0.38,1.71-1.17,2.74-1.94c1.1-0.82,2.14-1.59,2.85-2.01c0.21-0.12,0.47-0.11,0.67,0.02
			c0.2,0.14,0.3,0.38,0.26,0.61c-0.12,0.69-0.31,1.33-0.48,1.9c-0.12,0.4-0.28,0.94-0.29,1.17c0.87,0.93,7.97,7.57,11.56,10.33
			c0.26,0.2,0.32,0.56,0.14,0.83c-1.97,3.05-4,6.21-6.47,9.45C428.99,113.51,428.81,113.6,428.61,113.6z M419.16,93.79
			c2.19,6.62,6.01,12.7,9.49,18.11c2.08-2.79,3.86-5.53,5.57-8.19c-3.77-2.99-11.21-9.89-11.47-10.38c-0.27-0.49-0.08-1.13,0.21-2.1
			c0.02-0.08,0.05-0.16,0.07-0.25c-0.46,0.33-0.95,0.7-1.44,1.06C420.69,92.71,419.83,93.35,419.16,93.79z"/>
	</g>
	<g>
		<path class="st0" d="M451.19,50.13c0.49,5.27,2.29,10.34,3.08,15.58s0.44,10.93-3,15.51c-3.03,4.03-8.37,6.8-13.88,7.2
			c-5.52,0.4-11.06-1.59-14.41-5.17c-3.15-3.36-4.81-11.45-5.81-15.48c-2.37,0.73-5.18,0.36-6.89-1.09
			c-1.71-1.46-2.07-4.01-0.61-5.78c1.46-1.77,3.56-2.31,6.33-0.4c-0.66-3.34-0.55-6.71-0.52-8.26c0.1-4.2-0.7-10.29,1.9-12.46
			c1.47-1.22,4.76-2.58,6.59-3.35c3.17-1.34,8.06,0.09,11.52-0.42c3.45-0.51,7.22,0.62,10.25,1.94
			C449.38,39.53,450.82,46.18,451.19,50.13z"/>
		<path class="st0" d="M435.99,89.08c-5.21,0-10.27-2.01-13.46-5.41c-2.94-3.14-4.56-9.91-5.63-14.4c-0.06-0.26-0.12-0.51-0.18-0.74
			c-2.49,0.56-5.17,0.04-6.84-1.38c-2.03-1.73-2.33-4.65-0.69-6.64c0.95-1.16,2.93-2.71,5.98-1.21c-0.41-2.87-0.34-5.57-0.31-6.96
			l0-0.1c0.02-0.86,0-1.8-0.01-2.79c-0.07-3.86-0.15-8.23,2.14-10.13c1.49-1.24,4.65-2.57,6.54-3.36l0.21-0.09
			c2.01-0.85,4.57-0.67,7.05-0.49c1.68,0.12,3.27,0.23,4.62,0.03c2.98-0.44,6.54,0.23,10.59,1.99c4.6,2,5.64,10.92,5.8,12.69l0,0
			c0.27,2.93,0.97,5.87,1.65,8.71c0.53,2.22,1.08,4.52,1.43,6.83c0.98,6.53-0.06,11.9-3.12,15.97c-3.14,4.18-8.63,7.04-14.33,7.44
			C436.95,89.07,436.47,89.08,435.99,89.08z M417.17,67.15c0.11,0,0.21,0.03,0.31,0.08c0.15,0.08,0.26,0.23,0.3,0.39
			c0.1,0.42,0.21,0.87,0.33,1.37c0.98,4.09,2.61,10.94,5.33,13.84c3.24,3.45,8.57,5.36,13.92,4.97c5.36-0.38,10.5-3.05,13.43-6.95
			c2.84-3.79,3.81-8.85,2.88-15.04c-0.34-2.25-0.88-4.53-1.41-6.73c-0.69-2.88-1.4-5.87-1.68-8.89l0,0
			c-0.42-4.55-2-10.34-5.06-11.67c-3.83-1.67-7.17-2.3-9.92-1.9c-1.48,0.22-3.21,0.1-4.89-0.02c-2.33-0.16-4.74-0.33-6.48,0.4
			l-0.21,0.09c-1.83,0.77-4.88,2.05-6.23,3.17c-1.83,1.52-1.76,5.58-1.69,9.16c0.02,1,0.04,1.95,0.01,2.84l0,0.1
			c-0.04,1.56-0.12,4.82,0.51,8.02c0.05,0.25-0.06,0.5-0.27,0.64c-0.21,0.14-0.48,0.13-0.69-0.01c-2.23-1.54-4.08-1.44-5.5,0.28
			c-1.21,1.47-0.97,3.62,0.54,4.91c1.5,1.28,4.03,1.67,6.31,0.97C417.05,67.16,417.11,67.15,417.17,67.15z"/>
	</g>
	<g>
		<path class="st0" d="M434.03,43.84c0.72,2.29,4.64,5.26,6.93,5.29s3.06-1.1,3.78-3.36c2.18,1.61,3.85,3.31,5.98,3.91
			c3.26,0.92,6.98-1.4,7.72-4.81c0.75-3.41-1.62-7.27-4.92-8c2.2,0.33,4.15-2.05,3.99-4.36c-0.16-2.31-1.96-4.26-4.04-5.09
			c-2.08-0.84-4.38-0.75-6.63-0.88c0.64-2.31-0.66-4.91-2.64-6.18c-1.98-1.27-4.47-1.39-6.72-0.91c-1.48,0.32-2.95,0.9-4.05,1.99
			c-1.1,1.08-1.76,2.73-1.55,4.41c-2.22-2.34-5.59-3.75-8.57-2.75c-2.97,1-4.94,4.92-4.94,7.5c-1.64-1.69-3.71-3.01-5.97-2.68
			c-4.5,0.64-5.18,4.58-2.7,9.35c-2.51-0.97-6,0.38-6.84,3.98c-0.62,2.68,0.7,6.74,2.7,8.62c1.99,1.88,8.54,3.05,12.73-0.55
			c2.33-2,3.29-4.53,3.81-6.87c1.53,2.16,2.63,3.64,6.05,4.44C430.63,47.44,433.42,46.22,434.03,43.84z"/>
		<path class="st0" d="M411.55,52.25c-2.77,0-5.28-0.88-6.41-1.95c-2.19-2.06-3.53-6.37-2.88-9.21c0.42-1.82,1.5-3.27,3.06-4.09
			c1.02-0.54,2.18-0.76,3.28-0.65c-1.09-2.56-1.23-4.84-0.38-6.48c0.73-1.41,2.14-2.31,4.1-2.59c1.85-0.26,3.72,0.4,5.57,1.99
			c0.51-2.75,2.52-5.86,5.23-6.77c2.59-0.87,5.67-0.11,8.16,1.93c0.17-1.28,0.77-2.5,1.72-3.44c1.05-1.03,2.51-1.76,4.36-2.15
			c2.72-0.58,5.28-0.23,7.19,0.99c2.09,1.34,3.31,3.86,3.05,6.12c0.18,0.01,0.36,0.01,0.54,0.02c1.86,0.07,3.79,0.14,5.59,0.86
			c2.48,1,4.26,3.26,4.43,5.63c0.1,1.44-0.51,2.96-1.6,3.97c-0.28,0.26-0.59,0.48-0.9,0.65c2.54,1.58,4.08,4.88,3.41,7.92
			c-0.4,1.84-1.61,3.47-3.31,4.49c-1.62,0.97-3.51,1.26-5.19,0.79c-1.72-0.49-3.15-1.62-4.66-2.82c-0.28-0.22-0.56-0.45-0.86-0.68
			c-0.74,1.92-1.76,3-4.09,2.97c-2.16-0.03-5.42-2.25-6.89-4.46c-1.16,1.8-3.61,2.75-6.07,2.18c-2.97-0.69-4.29-1.85-5.63-3.61
			c-0.54,1.84-1.54,4.08-3.68,5.91C416.59,51.58,413.97,52.25,411.55,52.25z M408.02,37.56c-0.72,0-1.46,0.18-2.13,0.53
			c-1.23,0.65-2.09,1.81-2.43,3.27c-0.56,2.43,0.64,6.26,2.52,8.03c1.88,1.78,8.06,2.74,11.9-0.57c2.39-2.05,3.2-4.71,3.61-6.54
			c0.05-0.24,0.24-0.42,0.48-0.47c0.24-0.05,0.49,0.05,0.63,0.25c1.41,1.99,2.42,3.43,5.68,4.19c2.05,0.48,4.6-0.44,5.15-2.57
			c0.07-0.27,0.31-0.46,0.58-0.47c0.28-0.03,0.52,0.17,0.61,0.43c0.64,2.01,4.32,4.83,6.35,4.85c1.75,0.02,2.44-0.61,3.18-2.93
			c0.06-0.19,0.21-0.34,0.4-0.4c0.19-0.06,0.4-0.03,0.56,0.09c0.55,0.41,1.07,0.82,1.56,1.21c1.47,1.17,2.74,2.18,4.22,2.6
			c1.35,0.38,2.88,0.14,4.21-0.66c1.41-0.84,2.41-2.19,2.74-3.7c0.67-3.08-1.49-6.6-4.45-7.26c-0.33-0.07-0.54-0.39-0.48-0.72
			c0.06-0.33,0.37-0.55,0.7-0.5c0.71,0.11,1.45-0.15,2.08-0.73c0.82-0.76,1.28-1.9,1.21-2.97c-0.15-2.2-1.95-3.87-3.65-4.56
			c-1.59-0.64-3.33-0.71-5.17-0.78c-0.42-0.02-0.85-0.03-1.27-0.05c-0.19-0.01-0.36-0.1-0.47-0.26c-0.11-0.15-0.14-0.35-0.09-0.53
			c0.53-1.92-0.49-4.28-2.38-5.49c-1.64-1.05-3.86-1.34-6.26-0.83c-1.61,0.34-2.87,0.96-3.75,1.82c-1.02,1.01-1.55,2.5-1.37,3.89
			c0.03,0.27-0.11,0.52-0.35,0.64c-0.24,0.11-0.53,0.06-0.72-0.13c-2.29-2.42-5.4-3.44-7.92-2.59c-2.75,0.92-4.51,4.71-4.52,6.91
			c0,0.25-0.15,0.48-0.39,0.57c-0.23,0.09-0.5,0.04-0.68-0.14c-1.86-1.91-3.69-2.76-5.44-2.5c-1.56,0.22-2.63,0.87-3.17,1.93
			c-0.79,1.53-0.45,3.85,0.94,6.53c0.12,0.23,0.08,0.51-0.09,0.7c-0.17,0.19-0.44,0.26-0.69,0.16
			C409.02,37.64,408.53,37.56,408.02,37.56z"/>
	</g>
	<g>
		<path class="st0" d="M446.98,58.2c0.02-0.66-0.53-1.2-1.22-1.22c-0.69-0.02-1.26,0.5-1.28,1.16c-0.02,0.66,0.53,1.2,1.22,1.22
			C446.39,59.37,446.96,58.86,446.98,58.2z"/>
	</g>
	<g>
		<path class="st0" d="M429.7,60.67c0.02-0.66-0.53-1.2-1.22-1.22s-1.26,0.5-1.28,1.16c-0.02,0.66,0.53,1.2,1.22,1.22
			C429.11,61.85,429.68,61.33,429.7,60.67z"/>
	</g>
	<g>
		<path class="st0" d="M436.1,80.83c-1.74,0-3.48-0.67-4.74-1.9c-0.24-0.24-0.25-0.63-0.01-0.88c0.24-0.24,0.63-0.25,0.88-0.01
			c1.44,1.41,3.77,1.92,5.67,1.23c0.32-0.12,0.68,0.05,0.79,0.37c0.12,0.32-0.05,0.68-0.37,0.79
			C437.6,80.71,436.85,80.83,436.1,80.83z"/>
	</g>
	<g>
		<path class="st0" d="M438.52,74.03c-0.12,0-0.25,0-0.37-0.01c-1.38-0.09-2.61-0.69-3.39-1.65c-0.21-0.27-0.17-0.66,0.09-0.87
			c0.27-0.22,0.66-0.17,0.87,0.09c0.55,0.68,1.49,1.13,2.5,1.19c0.91,0.06,1.9-0.16,2.95-0.64c0.35-0.16,0.73-0.36,0.95-0.66
			c0.26-0.36,0.31-0.92,0.13-1.51c-0.16-0.51-0.45-1-0.76-1.51l-0.15-0.25c-1.85-3.07-2.99-6.59-3.29-10.17
			c-0.03-0.34,0.22-0.64,0.57-0.67c0.34-0.03,0.64,0.22,0.67,0.57c0.28,3.39,1.36,6.72,3.11,9.63l0.15,0.24
			c0.34,0.55,0.69,1.13,0.89,1.79c0.3,0.97,0.18,1.91-0.31,2.59c-0.38,0.53-0.94,0.83-1.43,1.06
			C440.6,73.78,439.53,74.03,438.52,74.03z"/>
	</g>
	<g>
		<path class="st0" d="M416.67,63.88c-0.27,0-0.53-0.18-0.6-0.46c-0.3-1.15-0.44-1.77-0.69-2.89c-0.08-0.33,0.13-0.67,0.47-0.74
			c0.33-0.08,0.67,0.13,0.74,0.47c0.25,1.11,0.39,1.72,0.68,2.85c0.09,0.33-0.11,0.67-0.44,0.76
			C416.78,63.87,416.73,63.88,416.67,63.88z"/>
	</g>
	<g>
		<path class="st0" d="M411.76,49.81c-0.05,0-0.1-0.01-0.15-0.02c-2.54-0.63-4.56-2.98-4.81-5.59c-0.03-0.34,0.22-0.64,0.56-0.67
			c0.34-0.03,0.64,0.22,0.67,0.56c0.2,2.1,1.83,3.99,3.87,4.5c0.33,0.08,0.53,0.42,0.45,0.75
			C412.29,49.62,412.04,49.81,411.76,49.81z"/>
	</g>
	<g class="st1">
		<path class="st0" d="M450.85,49.2c-1.13-0.67-2.28-1.3-3.36-2.05c-0.72-0.38-1.32-1.13-2.13-1.27c-1.1-0.19-1.78,0.87-1.59,1.77
			c-0.18,0.14-0.38,0.24-0.59,0.31c-0.02,0.03-0.04,0.07-0.07,0.1c-0.02,0.03-0.04,0.05-0.05,0.07c-0.07,0.07-0.14,0.14-0.22,0.21
			c-0.03,0.03-0.07,0.05-0.1,0.07c-0.07,0.04-0.16,0.07-0.23,0.1c-0.26,0.07-0.52,0.13-0.79,0.15c-0.01,0-0.01,0-0.02,0
			c-1.16,0-2.53-0.56-3.23-0.93c-0.03-0.02-0.05-0.03-0.08-0.05c-0.06-0.04-0.4-0.24-0.52-0.32c-0.64-0.42-1.28-0.85-1.88-1.34
			c-0.14-0.13-0.28-0.28-0.41-0.43c-0.12-0.5-0.54-0.97-1.07-0.92c-0.54-0.02-1,0.57-0.89,1.1c0.02,0.07,0.04,0.14,0.07,0.21
			c0,0.01,0,0.03,0,0.04c-0.01,0.03-0.02,0.05-0.02,0.07c-0.04,0.02-0.07,0.04-0.11,0.06c-0.17,0-0.34,0.05-0.48,0.15
			c-0.07,0.04-0.15,0.09-0.19,0.11c-0.49,0.26-1.07,0.5-1.46,0.63c-0.2-0.2-0.48-0.34-0.83-0.33c-1.46-0.09-1.93-0.2-3.69-0.85
			c-0.66-0.19-0.49-0.35-1.6-0.57c-0.3,0-0.55,0.1-0.75,0.26c-0.11-0.11-0.21-0.22-0.31-0.34c-0.18-0.23-0.25-0.34-0.3-0.4
			c-0.37-0.26-0.74-0.54-1.09-0.83c-0.41,0.05-0.79,0.37-0.75,0.87c-0.02,0.22,0.11,0.4,0.23,0.57c0.19,0.3,0.39,0.6,0.61,0.88
			c-0.07-0.1-0.17-0.28-0.05-0.08c0.52,0.78,1.22,1.42,1.97,1.98c1.21,0.87,2.6,1.44,4.04,1.79c0.99,0.23,2,0.4,3.02,0.27
			c0.08-0.01,0.16-0.02,0.24-0.04c-0.03,0-0.07,0-0.1,0c0.8-0.07,1.57-0.46,2.17-0.99c0.43-0.4,0.76-0.9,1-1.44
			c0.68,0.62,1.43,1.16,2.21,1.63c0.8,0.44,1.33,0.8,2.69,1.15c1.39,0.37,3.03,0.3,4.17-0.67c0.29-0.28,0.54-0.6,0.77-0.93
			c0.89,0.64,1.78,1.27,2.71,1.86c0.8,0.45,1.62,1.01,2.55,1.12C451.87,51.92,452.21,49.9,450.85,49.2z"/>
	</g>
	<g class="st1">
		<path class="st0" d="M407.03,52.2c0.23-0.65,0.93-0.55,1.48-0.5c0.82,0.06,1.64,0.01,2.45,0.06c0.6,0.04,1.21,0.1,1.81,0.07
			c-0.01,0-0.01,0-0.02,0c0.19-0.01,0.34-0.01,0,0c0.32,0,0.65-0.07,0.97-0.05c0.05-0.16,0.13-0.3,0.27-0.41
			c0.59-0.55,1.63-0.02,1.53,0.78c-0.07,0.61-0.14,1.22-0.13,1.83c0.13,0.88,0.27,2.29-1,2.24c-0.25-0.02-0.46-0.15-0.65-0.32
			c0.04,0.07-0.6-0.35-0.76-0.42c-0.67-0.38-1.92-0.92-3.16-1.46c-0.64-0.26-1.29-0.5-1.94-0.7c-0.05-0.01-0.1-0.02-0.15-0.04
			c-0.04-0.01-0.11-0.02-0.18-0.04C407.12,53.11,406.87,52.62,407.03,52.2z"/>
	</g>
	<g class="st1">
		<path class="st0" d="M428.93,112.25c0.2-0.42,0.68-0.69,0.96-1.06c0.68-0.76,1.43-1.74,1.61-2.11c0.16-0.26,0.32-0.52,0.46-0.79
			c0.12-0.29,0.28-0.58,0.59-0.69c0.69-0.29,1.42,0.49,1.09,1.16c-0.08,0.15-0.16,0.3-0.24,0.45c0.07-0.04,0.15-0.08,0.23-0.09
			c0.91-0.25,1.48,1.01,0.71,1.55c-0.92,0.63-1.8,1.31-2.68,1.99c-0.86,0.59-1.52,1-1.99,1.16
			C428.75,114.09,428.16,112.81,428.93,112.25z"/>
	</g>
	<g class="st1">
		<path class="st0" d="M440.45,108.62c0.18-0.44,0.34-0.88,0.56-1.31c0.1-0.22,0.14-0.49,0.35-0.64c0.47-0.47,1.16-0.22,1.41,0.26
			c0.03,0,0.06,0,0.09,0.01c0.37,0.06,0.63,0.37,0.91,0.6c0.46,0.41,0.43,0.51,0.5,0.65c0,0.01,0.01,0.01,0.01,0.01
			c0.08,0.1,0.13,0.21,0.17,0.32c0.38,0.1,0.76,0.23,1.14,0.36c0.57,0.21,1.25,0.3,1.7,0.72c0.66,0.65-0.14,1.76-0.98,1.36
			c-0.62-0.27-1.33-0.42-2.44-0.75c-0.63-0.16-1.29-0.17-1.93-0.26c-0.17-0.03-0.31-0.08-0.42-0.16
			C440.87,110.04,440.12,109.36,440.45,108.62z"/>
	</g>
	<g>
		<path class="st0" d="M406.83,196.63c2.21,2.78,4.12,5.84,5.15,9.24c1.03,3.39,1.11,7.15-0.24,10.43c-0.78,1.89-2,3.56-3.28,5.16
			c-1.45,1.82-2.98,3.57-4.59,5.24c-1.52,1.59-3.51,3.23-5.66,2.78c-0.25-0.05-0.51-0.14-0.67-0.33c-0.44-0.5-0.04-1.26,0.36-1.79
			c2.04-2.7,4.08-5.41,6.2-7.89c-1.86,2.31-3.82,4.54-5.88,6.67c-0.8,0.83-1.84,1.72-2.96,1.44c-0.44-1.08,0.22-2.27,0.85-3.25
			c1.48-2.29,2.96-4.57,4.43-6.86c-1.44,2.09-3.02,4.08-4.73,5.95c-0.42,0.47-1.09,0.96-1.61,0.61c-0.4-0.27-0.4-0.85-0.31-1.32
			c0.58-3.13,2.97-5.54,4.71-8.2c1.74-2.66,2.79-6.42,0.74-8.85c-0.2-0.24-0.45-0.49-0.49-0.8c-0.05-0.32,0.13-0.63,0.3-0.91
			c1.3-2.08,2.75-4.06,4.35-5.91C404.38,197.03,405.97,195.54,406.83,196.63z"/>
		<path class="st0" d="M398.95,230.18c-0.28,0-0.56-0.03-0.85-0.09c-0.29-0.06-0.7-0.18-1.01-0.53c-0.24-0.27-0.51-0.78-0.24-1.57
			c-0.53,0.25-1.12,0.35-1.74,0.2c-0.19-0.05-0.35-0.18-0.42-0.37c-0.46-1.14,0.03-2.33,0.5-3.16c-0.47,0.19-0.93,0.16-1.32-0.1
			c-0.31-0.21-0.8-0.74-0.58-1.95c0.45-2.45,1.93-4.45,3.36-6.4c0.49-0.66,0.99-1.35,1.44-2.03c1.54-2.35,2.67-5.88,0.78-8.11
			l-0.07-0.08c-0.22-0.25-0.49-0.57-0.56-1.03c-0.08-0.57,0.22-1.04,0.39-1.32c1.31-2.1,2.79-4.11,4.4-5.99
			c0.8-0.92,1.97-2.02,3.06-2.02c0.01,0,0.02,0,0.03,0c0.48,0.01,0.89,0.22,1.2,0.61l0,0c2.61,3.28,4.32,6.37,5.26,9.44
			c1.15,3.8,1.06,7.65-0.26,10.85c-0.82,1.99-2.1,3.73-3.36,5.31c-1.45,1.82-3.01,3.6-4.63,5.28
			C403.03,228.48,401.13,230.18,398.95,230.18z M402.87,221.93c-1.52,1.89-3.01,3.87-4.47,5.8c-0.38,0.51-0.48,0.9-0.39,1.01
			c0.03,0.03,0.1,0.09,0.34,0.14c1.93,0.4,3.83-1.29,5.09-2.6c1.59-1.66,3.12-3.4,4.55-5.2c1.21-1.51,2.43-3.17,3.19-5.01
			c1.21-2.93,1.28-6.49,0.22-10.01c-0.89-2.92-2.53-5.88-5.04-9.03l0,0c-0.09-0.12-0.17-0.14-0.26-0.14c0,0-0.01,0-0.01,0
			c-0.46,0-1.28,0.62-2.12,1.59c-1.57,1.83-3.02,3.79-4.29,5.84c-0.08,0.12-0.23,0.37-0.22,0.49c0.01,0.09,0.15,0.25,0.27,0.39
			l0.08,0.09c2.33,2.75,1.08,6.88-0.69,9.59c-0.47,0.71-0.98,1.41-1.48,2.09c-1.41,1.91-2.74,3.72-3.14,5.88
			c-0.08,0.43-0.01,0.65,0.05,0.69c0.09,0.06,0.43-0.09,0.81-0.51c1.68-1.85,3.25-3.83,4.68-5.89c0.19-0.28,0.57-0.35,0.85-0.16
			c0.28,0.19,0.36,0.57,0.18,0.85l-4.43,6.86c-0.52,0.8-0.97,1.63-0.89,2.35c0.72-0.04,1.45-0.7,2.03-1.3
			c1.42-1.48,2.8-3.01,4.14-4.57c0.57-0.71,1.14-1.4,1.72-2.07c0.22-0.26,0.61-0.29,0.87-0.07c0.26,0.22,0.3,0.6,0.09,0.87
			C404.02,220.56,403.45,221.25,402.87,221.93z"/>
	</g>
	<g>
		<path class="st0" d="M446.24,89.25c-1.39,4.67-4.7,11.27-8.46,14.07c2.36,1.69,5.39,4.41,10.3,7.36
			c0.81-8.22,2.1-12.22,2.45-18.62C449.4,91.38,447.62,89.91,446.24,89.25z"/>
		<path class="st0" d="M448.08,111.29c-0.11,0-0.22-0.03-0.32-0.09c-3.49-2.1-6.03-4.07-8.06-5.66c-0.85-0.66-1.59-1.24-2.27-1.73
			c-0.16-0.12-0.26-0.3-0.26-0.5c0-0.2,0.09-0.39,0.25-0.5c3.5-2.6,6.79-8.88,8.23-13.74c0.05-0.17,0.18-0.32,0.34-0.39
			c0.17-0.07,0.35-0.07,0.52,0.01c0.9,0.43,1.95,1.17,2.87,1.83c0.55,0.39,1.07,0.76,1.47,1c0.2,0.12,0.31,0.34,0.3,0.56
			c-0.19,3.44-0.63,6.13-1.15,9.25c-0.43,2.61-0.92,5.58-1.3,9.4c-0.02,0.21-0.15,0.4-0.34,0.49
			C448.27,111.27,448.17,111.29,448.08,111.29z M438.8,103.29c0.51,0.38,1.06,0.81,1.66,1.28c1.84,1.43,4.1,3.19,7.1,5.06
			c0.37-3.4,0.81-6.1,1.21-8.5c0.49-2.97,0.92-5.55,1.11-8.75c-0.38-0.24-0.8-0.54-1.23-0.86c-0.66-0.47-1.38-0.98-2.04-1.37
			C445.1,94.8,442.09,100.44,438.8,103.29z"/>
	</g>
	<g>
		<path class="st0" d="M413.59,187.89c-6.6,13.62-46.14,139.13-65.16,191.57c8.7,0,19.62-0.23,24.13,0
			c20.31-43.64,50.77-111.51,66.69-155.86c1.59,7.43-1.58,56.16-1.47,68.69c0.09,10.78-6,74.14-6.95,87.17
			c0.98,0.91,24.43,0,24.43,0c8.02-46.26,14.3-107.32,15.89-154.24c0.38-11.23,1.41-21.41,0.74-38.85
			C460.26,192.65,432.76,195.32,413.59,187.89z"/>
		<path class="st0" d="M437.54,380.48c-6.52,0-6.87-0.34-7.13-0.57c-0.14-0.13-0.21-0.31-0.2-0.5c0.29-4.02,1.09-12.99,2.01-23.38
			c2.11-23.77,5-56.32,4.94-63.74c-0.04-4.61,0.35-13.86,0.81-24.57c0.65-15.3,1.43-33.87,0.97-41.43
			c-18.05,49.62-51.92,123.57-65.81,153.42c-0.11,0.23-0.35,0.36-0.59,0.36c-2.95-0.15-8.67-0.1-14.73-0.05
			c-3.14,0.03-6.39,0.05-9.37,0.05c-0.2,0-0.39-0.1-0.51-0.26c-0.12-0.17-0.14-0.38-0.08-0.57c9-24.83,22.89-66.9,35.15-104.02
			c14.24-43.14,26.54-80.4,30.04-87.61c0.14-0.29,0.48-0.42,0.78-0.31c18.33,7.11,45.62,5.08,57.78-1.49c0.19-0.1,0.42-0.1,0.6,0.01
			c0.19,0.11,0.3,0.3,0.31,0.51c0.5,13.05,0.06,21.88-0.36,30.43c-0.14,2.89-0.28,5.62-0.38,8.47
			c-1.6,47.31-7.85,107.88-15.9,154.32c-0.05,0.29-0.29,0.5-0.59,0.51c-0.06,0-5.94,0.23-11.86,0.34
			C441.04,380.46,439.11,380.48,437.54,380.48z M431.48,379.02c2.4,0.43,15.05,0.14,23.25-0.17c8-46.32,14.2-106.57,15.8-153.66
			c0.1-2.85,0.23-5.59,0.38-8.49c0.41-8.3,0.84-16.88,0.4-29.35c-12.66,6.27-39.2,8.13-57.4,1.31
			c-3.78,8.33-16.39,46.54-29.73,86.94c-12.12,36.72-25.84,78.28-34.86,103.22c2.73,0,5.64-0.03,8.47-0.05
			c5.81-0.05,11.3-0.1,14.39,0.04c14.23-30.59,48.78-106.08,66.49-155.43c0.09-0.26,0.35-0.43,0.62-0.41
			c0.28,0.02,0.51,0.22,0.56,0.49c1.02,4.79,0.13,25.78-0.65,44.31c-0.45,10.7-0.84,19.93-0.81,24.51
			c0.06,7.49-2.83,40.07-4.94,63.86C432.57,366.13,431.8,374.81,431.48,379.02z"/>
	</g>
	<g class="st1">
		<path class="st0" d="M406.19,196c-0.8-0.17-1.34,0.6-1.89,1.05c-1.76,1.69-3.35,3.57-4.68,5.62c-0.35,0.6-0.99,1.18-0.77,1.93
			c0.25,1.03,1.77,1.23,2.27,0.3c1.56-2.45,3.67-5.1,5.55-6.44C407.76,197.87,407.43,196.09,406.19,196z"/>
	</g>
	<g class="st1">
		<path class="st0" d="M472.01,187.17c-0.79-1.19-1.86-0.57-2.86-0.08c-0.31,0.14-0.96,0.42-0.34,0.16
			c-1.05,0.47-2.37,0.95-4.21,1.6c-1.69,0.57-3.4,1.13-5.15,1.51c-1.74,0.4-3.49,0.73-5.25,0.98c0.14-0.02,0.27-0.04,0.41-0.05
			c-3.44,0.5-6.85,0.85-11.2,0.87c-3.77,0.04-7.55,0.27-11.32-0.09c-6.06-0.51-11.11-0.8-15.79-3.44c-0.64-0.27-1.28-0.94-1.94-1.03
			c-1.4-0.25-2.11,1.76-0.85,2.47c4.17,2.85,9.18,4.13,14.16,4.49c3.72,0.39,7.46,0.71,11.21,0.6c3.25-0.16,6.51,0.14,9.76-0.05
			c4.65-0.34,9.28-1.21,13.74-2.56c2.31-0.77,4.6-1.62,6.88-2.47c0.75-0.3,1.49-0.62,2.22-0.95
			C472.16,188.74,472.41,187.82,472.01,187.17z"/>
	</g>
	<g>
		<path class="st0" d="M434.66,108.01c-0.05,0-0.1-0.02-0.14-0.05c-0.08-0.08-0.09-0.21-0.02-0.29c0.81-0.9,1.58-1.87,2.27-2.87
			c0.06-0.09,0.19-0.12,0.29-0.05c0.09,0.07,0.12,0.19,0.05,0.29c-0.71,1.01-1.48,1.99-2.31,2.91
			C434.77,107.99,434.72,108.01,434.66,108.01z"/>
	</g>
</g>
<g>
	<path class="st0" d="M658.2,171.55c18.92-1.48,43.34,9.03,41.25,22.53c-5.35,34.6-9.79,24.36-7.82,57.63
		c-3.5-0.33-0.84,2.05-4.36,2.16c-11.29,0.34-22.57,0.68-33.62-0.01c-2.46-15.75,1.4-31.74,3.36-47.58
		C658.46,194.61,658.86,182.79,658.2,171.55z"/>
	<path class="st0" d="M667.9,254.87c-4.8,0-9.58-0.11-14.28-0.4c-0.29-0.02-0.53-0.24-0.57-0.52c-1.91-12.22-0.02-24.71,1.8-36.8
		c0.54-3.59,1.1-7.31,1.55-10.95c1.45-11.72,1.84-23.36,1.18-34.62c-0.02-0.34,0.23-0.63,0.57-0.65
		c13.9-1.09,30.56,4.29,37.93,12.24c3.19,3.43,4.56,7.24,3.98,11c-2.09,13.5-4.07,20.32-5.52,25.3c-2.32,7.97-3.49,11.97-2.29,32.19
		c0.01,0.18-0.06,0.36-0.19,0.48c-0.13,0.13-0.31,0.19-0.49,0.17c-1.3-0.12-1.38,0.1-1.54,0.53c-0.29,0.79-0.75,1.57-2.74,1.63
		C680.91,254.68,674.39,254.87,667.9,254.87z M654.2,253.26c10.87,0.65,22.15,0.31,33.06-0.02c1.32-0.04,1.44-0.37,1.61-0.82
		c0.27-0.71,0.64-1.35,2.1-1.37c-1.14-19.84,0.04-23.91,2.38-31.93c1.44-4.95,3.41-11.72,5.49-25.15c0.53-3.42-0.7-6.78-3.66-9.97
		c-7.04-7.59-22.89-12.76-36.32-11.89c0.62,11.14,0.21,22.65-1.22,34.23c-0.45,3.66-1.01,7.38-1.56,10.98
		C654.29,229.16,652.44,241.39,654.2,253.26z"/>
</g>
<g>
	<path class="st0" d="M659.79,251.75c10.05,0.49,20.17,0.97,30.1-1.05c0.04,8.11-0.68,16.22-2.13,24.12
		c-0.56,3.07-1.25,6.15-2.57,8.82c-2.41,4.88-6.69,7.85-11.1,9.13c-4.4,1.28-8.97,1.07-13.49,0.84c-1.48-0.07-3.12-0.22-4.17-1.56
		c-0.91-1.14-1.15-2.88-1.22-4.51C654.74,275.56,661.57,264.16,659.79,251.75z"/>
	<path class="st0" d="M665.79,294.4c-1.75,0-3.49-0.09-5.21-0.17c-1.69-0.08-3.44-0.29-4.63-1.79c-1.09-1.38-1.29-3.44-1.35-4.87
		c-0.22-5.56,1.12-11.06,2.42-16.39c1.53-6.26,3.11-12.73,2.16-19.35c-0.03-0.18,0.03-0.37,0.15-0.51c0.12-0.14,0.3-0.21,0.49-0.2
		c9.86,0.48,20.05,0.97,29.95-1.04c0.18-0.04,0.37,0.01,0.51,0.13c0.14,0.12,0.23,0.29,0.23,0.48c0.04,8.15-0.68,16.3-2.14,24.23
		c-0.56,3.03-1.26,6.22-2.62,8.98c-2.27,4.61-6.35,7.96-11.48,9.45C671.47,294.17,668.62,294.4,665.79,294.4z M660.5,252.4
		c0.77,6.59-0.78,12.93-2.28,19.08c-1.28,5.24-2.6,10.65-2.39,16.04c0.05,1.26,0.22,3.05,1.08,4.15c0.87,1.1,2.25,1.25,3.72,1.32
		c4.4,0.21,8.95,0.44,13.28-0.82c4.79-1.39,8.6-4.52,10.71-8.81c1.3-2.63,1.98-5.72,2.52-8.66c1.4-7.61,2.11-15.43,2.12-23.25
		C679.72,253.27,669.96,252.86,660.5,252.4z"/>
</g>
<g>
	<path class="st0" d="M595.52,115.54c0.64,4.84,1.62,9.93,0.37,14.75c-0.68,2.63-0.62,16.01,10.11,19.81
		c5.64,2,12.12,1.59,17.94-1.94c3.95-2.39,8.74-9.83,7.79-17.21c3.27,0.91,6.5-1.3,6.53-4.23c0.02-1.69-1.84-3.81-3.82-3.72
		c-1.53,0.07-1.71,0.09-2.87,0.98c-0.79-3.46-1.27-6.99-1.21-10.97c-3.71-4.09-9.66-6.18-15.62-7.07c-1.97-0.29-3.99-0.48-5.99-0.23
		C603.04,106.42,594.86,110.57,595.52,115.54z"/>
	<path class="st0" d="M612.96,151.94c-2.4,0-4.81-0.41-7.16-1.25c-10.88-3.86-11.35-17.29-10.51-20.55
		c1.07-4.12,0.46-8.5-0.14-12.74c-0.08-0.6-0.17-1.19-0.24-1.78l0,0c-0.19-1.46,0.26-2.91,1.34-4.31c2.59-3.35,8.34-5.71,12.44-6.22
		c2.24-0.28,4.46-0.02,6.15,0.23c4.96,0.74,11.75,2.61,15.98,7.27c0.11,0.12,0.16,0.27,0.16,0.43c-0.05,3.29,0.26,6.46,0.99,9.92
		c0.73-0.45,1.2-0.49,2.44-0.55c1.03-0.05,2.13,0.41,3.01,1.26c0.92,0.89,1.47,2.04,1.45,3.09c-0.02,1.49-0.77,2.91-2.05,3.87
		c-1.24,0.93-2.84,1.33-4.4,1.13c0.56,7.51-4.28,14.61-8.17,16.97C620.71,150.85,616.85,151.94,612.96,151.94z M610.74,106.21
		c-0.63,0-1.27,0.03-1.9,0.11c-3.85,0.48-9.22,2.66-11.61,5.75c-0.87,1.13-1.24,2.27-1.09,3.39l0,0c0.08,0.59,0.16,1.18,0.24,1.77
		c0.61,4.36,1.24,8.86,0.11,13.22c-0.46,1.78-1.05,15.25,9.72,19.07c5.82,2.07,12,1.39,17.41-1.89c3.65-2.22,8.42-9.4,7.49-16.6
		c-0.03-0.21,0.05-0.41,0.21-0.55c0.16-0.14,0.37-0.19,0.57-0.13c1.46,0.4,3.02,0.12,4.19-0.75c0.97-0.73,1.54-1.79,1.56-2.89
		c0.01-0.69-0.41-1.54-1.07-2.18c-0.64-0.61-1.4-0.95-2.09-0.91c-1.48,0.07-1.51,0.07-2.53,0.85c-0.17,0.13-0.39,0.16-0.59,0.09
		c-0.2-0.07-0.35-0.24-0.39-0.44c-0.88-3.82-1.27-7.28-1.23-10.87c-4-4.26-10.39-5.99-15.09-6.7
		C613.53,106.38,612.16,106.21,610.74,106.21z"/>
</g>
<g>
	<path class="st0" d="M619.11,134.17c-1.62,0-3.19-0.59-4.5-1.72c-1.52-1.3-2.51-3.17-2.78-5.24c-0.56-4.32,2.19-8.24,6.11-8.75
		c1.91-0.25,3.82,0.34,5.36,1.66c1.52,1.3,2.51,3.17,2.78,5.24c0.56,4.32-2.19,8.24-6.11,8.75
		C619.68,134.15,619.4,134.17,619.11,134.17z M618.8,119.65c-0.23,0-0.46,0.01-0.69,0.04c-3.25,0.42-5.51,3.72-5.04,7.36
		c0.23,1.77,1.06,3.36,2.35,4.46c1.27,1.09,2.83,1.58,4.39,1.37c3.25-0.42,5.51-3.72,5.04-7.36c-0.23-1.77-1.06-3.36-2.35-4.46
		C621.41,120.14,620.12,119.65,618.8,119.65z"/>
</g>
<g>
	<path class="st0" d="M599.71,135.06c-1.62,0-3.19-0.59-4.5-1.72c-1.52-1.3-2.51-3.17-2.78-5.24c-0.56-4.32,2.19-8.24,6.11-8.75
		c3.93-0.51,7.58,2.59,8.13,6.91c0.27,2.08-0.21,4.13-1.35,5.78c-1.15,1.67-2.85,2.72-4.76,2.97
		C600.28,135.04,600,135.06,599.71,135.06z M599.39,120.53c-0.23,0-0.46,0.01-0.68,0.04c-3.25,0.42-5.51,3.72-5.04,7.36
		c0.23,1.77,1.06,3.36,2.35,4.46c1.27,1.09,2.83,1.58,4.39,1.37c1.56-0.2,2.95-1.07,3.9-2.44c0.97-1.39,1.37-3.14,1.14-4.91
		C605.02,123.04,602.37,120.53,599.39,120.53z"/>
</g>
<g>
	<path class="st0" d="M636.01,85.94c-1.98-6.52-8.88-10.2-15.4-8.22c-6.52,1.98-10.2,8.88-8.22,15.4c1.98,6.52,8.88,10.2,15.4,8.22
		C634.31,99.36,637.99,92.46,636.01,85.94z"/>
	<path class="st0" d="M624.21,102.49c-5.56,0-10.71-3.61-12.41-9.2c-2.08-6.84,1.8-14.09,8.64-16.17c3.31-1.01,6.82-0.66,9.88,0.97
		c3.05,1.63,5.29,4.35,6.3,7.67l0,0c2.08,6.84-1.8,14.09-8.63,16.17C626.72,102.31,625.45,102.49,624.21,102.49z M624.22,77.8
		c-1.15,0-2.3,0.17-3.42,0.51c-6.19,1.88-9.69,8.44-7.81,14.63c1.88,6.18,8.44,9.69,14.63,7.81c6.19-1.88,9.69-8.44,7.81-14.63l0,0
		c-0.91-3-2.93-5.46-5.7-6.93C628,78.26,626.12,77.8,624.22,77.8z"/>
</g>
<g>
	<path class="st0" d="M631.14,124.48c-3.14-4.86-5.06-8.37-6.1-14.28c-11.58,6.84-22.58,5.67-33.67,5.24
		c-0.24-1.88,0.16-3.82,0.94-5.61c1.92-4.38,4.31-8.17,11.01-11.15c4.69-2.09,11.01-3.48,16.09-2.74c5.05,0.73,9.39,3.46,12.92,6.73
		c2.81,2.61,5.19,6.88,6.03,11.1c0.72,3.62-0.17,6.28-1.79,9.96c-0.91-0.49-1.77-0.99-2.82-0.78
		C632.7,123.15,632.02,123.68,631.14,124.48z"/>
	<path class="st0" d="M631.14,125.1c-0.03,0-0.05,0-0.08-0.01c-0.18-0.02-0.34-0.13-0.44-0.28c-2.79-4.33-4.89-7.89-6.03-13.65
		c-10.48,5.89-20.61,5.44-30.42,5c-0.94-0.04-1.88-0.08-2.83-0.12c-0.3-0.01-0.55-0.24-0.59-0.54c-0.23-1.87,0.11-3.92,0.99-5.93
		c2.16-4.93,4.81-8.56,11.32-11.47c4.23-1.89,10.77-3.61,16.43-2.79c4.57,0.66,9.03,2.98,13.26,6.89c2.98,2.76,5.36,7.15,6.22,11.43
		c0.78,3.94-0.31,6.89-1.83,10.33c-0.07,0.16-0.2,0.28-0.37,0.34c-0.16,0.06-0.34,0.04-0.5-0.04l-0.11-0.06
		c-0.81-0.44-1.5-0.81-2.3-0.66c-0.86,0.16-1.4,0.56-2.31,1.39C631.44,125.05,631.29,125.1,631.14,125.1z M625.04,109.58
		c0.09,0,0.18,0.02,0.26,0.06c0.18,0.09,0.32,0.26,0.35,0.46c1.01,5.77,2.97,9.3,5.62,13.45c0.69-0.58,1.38-1.02,2.37-1.2
		c1.02-0.2,1.85,0.13,2.64,0.53c1.51-3.52,2.1-5.86,1.48-8.98c-0.79-3.98-3.09-8.21-5.84-10.77c-4.03-3.74-8.27-5.95-12.59-6.58
		c-5.4-0.78-11.67,0.88-15.75,2.7c-6.82,3.04-9.02,7.02-10.69,10.83c-0.71,1.62-1.03,3.25-0.94,4.76c0.76,0.03,1.53,0.07,2.29,0.1
		c10.32,0.46,20.06,0.9,30.49-5.27C624.82,109.61,624.93,109.58,625.04,109.58z"/>
</g>
<g>
	<path class="st0" d="M614.36,143.24c-0.88,0-1.7-0.28-2.35-0.81c-0.26-0.22-0.3-0.61-0.08-0.87c0.22-0.26,0.61-0.3,0.87-0.08
		c1.08,0.9,2.53,0.4,2.95,0.23c1.28-0.53,2.34-1.57,2.97-2.92c0.15-0.31,0.51-0.44,0.82-0.3c0.31,0.15,0.44,0.51,0.3,0.82
		c-0.76,1.62-2.04,2.88-3.61,3.53C615.61,143.11,614.97,143.24,614.36,143.24z"/>
</g>
<g>
	<path class="st0" d="M618.29,124.76c-0.08-0.61-0.66-1.03-1.3-0.95c-0.64,0.08-1.09,0.64-1.02,1.25c0.08,0.61,0.66,1.03,1.3,0.95
		C617.91,125.92,618.37,125.36,618.29,124.76z"/>
</g>
<g>
	<path class="st0" d="M601.26,125.84c-0.08-0.61-0.66-1.03-1.3-0.95c-0.64,0.08-1.09,0.64-1.02,1.25c0.08,0.61,0.66,1.03,1.3,0.95
		S601.34,126.45,601.26,125.84z"/>
</g>
<g>
	<path class="st0" d="M607.68,135.99c-0.07,0-0.15-0.01-0.22-0.04l-1.58-0.6c-0.21-0.08-0.64-0.24-0.81-0.69
		c-0.21-0.54,0.13-1.01,0.3-1.23c1.15-1.54,1.53-3.54,1.02-5.34c-0.09-0.33,0.1-0.67,0.43-0.76c0.33-0.09,0.67,0.1,0.76,0.43
		c0.61,2.17,0.15,4.57-1.22,6.42c-0.01,0.01-0.01,0.02-0.02,0.03l1.55,0.59c0.32,0.12,0.48,0.48,0.36,0.8
		C608.16,135.84,607.93,135.99,607.68,135.99z"/>
</g>
<g>
	<path class="st0" d="M605.93,125.69c-0.34,0-0.61-0.27-0.62-0.61c-0.02-1.2,1.11-2.02,2.24-2.31c1.77-0.45,3.79,0.01,5.13,1.18
		c0.26,0.22,0.28,0.62,0.06,0.87c-0.23,0.26-0.62,0.29-0.87,0.06c-1.05-0.91-2.62-1.27-4.01-0.92c-0.64,0.16-1.31,0.6-1.31,1.09
		c0.01,0.34-0.27,0.62-0.61,0.63C605.93,125.69,605.93,125.69,605.93,125.69z"/>
</g>
<g>
	<path class="st0" d="M630.61,124.74c-0.01,0-0.01,0-0.02,0l-5.4-0.14c-0.34-0.01-0.61-0.29-0.6-0.64c0.01-0.34,0.29-0.63,0.64-0.6
		l5.4,0.14c0.34,0.01,0.61,0.29,0.6,0.64C631.22,124.47,630.95,124.74,630.61,124.74z"/>
</g>
<g>
	<path class="st0" d="M630.31,98.38c-0.18,0-0.35-0.08-0.48-0.22c-0.93-1.11-2.24-2.01-3.88-2.68c-1.53-0.62-3.2-0.97-4.77-1.26
		c-0.34-0.06-0.56-0.38-0.5-0.72c0.06-0.34,0.39-0.56,0.72-0.5c1.64,0.3,3.38,0.67,5.01,1.33c1.84,0.74,3.31,1.76,4.37,3.03
		c0.22,0.26,0.18,0.65-0.08,0.87C630.6,98.33,630.45,98.38,630.31,98.38z"/>
</g>
<g>
	<path class="st0" d="M631.65,128.71C631.65,128.71,631.65,128.71,631.65,128.71c-0.35,0-0.62-0.28-0.62-0.63
		c0.01-1.37-0.26-2.75-0.79-4.01c-0.13-0.32,0.01-0.68,0.33-0.81c0.32-0.13,0.68,0.01,0.81,0.33c0.6,1.41,0.91,2.97,0.89,4.51
		C632.27,128.44,631.99,128.71,631.65,128.71z"/>
</g>
<g class="st1">
	<path class="st0" d="M614.3,92.56c0.34-0.22,0.75-0.21,1.13-0.25c0.62-0.04,1.25-0.05,1.87-0.01c3.68,0.08,7.24,1.3,10.42,3.12
		c0.83,0.49,1.61,1.07,2.4,1.62c0.45,0.36,1.04,0.67,1.27,1.22c0.66,1.35-1.1,2.61-2.2,1.59c-1.67-1.53-5.03-3.38-7.31-4
		c-2.19-0.66-2.72-0.69-4.71-0.8c-0.57-0.04-1.14-0.06-1.71-0.05c-0.48,0.04-1.01,0.02-1.37-0.34
		C613.47,94.1,613.58,93.01,614.3,92.56z"/>
</g>
<g class="st1">
	<path class="st0" d="M596.48,116.24c0.19-0.37,0.61-0.58,1.02-0.54c0.14,0,0.87,0.04,1.04,0.07c1.14,0.07,2.27,0.2,3.41,0.19
		c2.18-0.06,4.37,0.02,6.54-0.27c2.63-0.22,4.94-0.7,7.93-1.52c2.64-0.79,4.58-1.86,7.15-3.55c0.44-0.25,0.87-0.73,1.42-0.61
		c0.68,0.14,0.85,1.13,0.25,1.48c-2.81,1.85-5.69,3.71-8.97,4.6c-1.9,0.56-3.83,0.99-5.78,1.31c-1.56,0.2-3.14,0.28-4.71,0.38
		c-2.39,0.1-4.77,0.25-7.16,0.11c-0.39-0.01-0.77-0.06-1.16-0.1c-0.22-0.04-0.47-0.06-0.64-0.22
		C596.36,117.3,596.25,116.68,596.48,116.24z"/>
</g>
<g>
	<path class="st0" d="M591.56,375.4c-11.67-31.07-23.35-62.15-35.02-93.22c-1.54-4.1-3.11-8.4-2.6-12.64
		c0.5-4.24,5.9-10.75,9.21-11.03c6.94-4.18,24.91-5.35,25.11,4.5c0.07,3.23-4.03,11-3.04,14.04c7.88,24.09,7.9,81.52,15.38,95.34
		c5.55,10.25,0.36,12.12-3.69,16.05c-0.49,0.48-1.16,0.93-1.83,0.68c-0.62-0.23-0.93-0.94-1.15-1.58
		C592.52,383.46,592.91,379.01,591.56,375.4z"/>
	<path class="st0" d="M595.46,389.81c-0.23,0-0.43-0.04-0.6-0.11c-0.86-0.31-1.25-1.17-1.53-1.96c-0.72-2.1-0.98-4.26-1.23-6.36
		c-0.25-2.07-0.48-4.02-1.13-5.76l-35.02-93.22c-1.49-3.96-3.17-8.44-2.64-12.93c0.53-4.5,6.05-11.09,9.62-11.56
		c5.35-3.14,16.25-4.41,21.94-1.28c2.56,1.41,3.94,3.61,3.99,6.37c0.03,1.49-0.72,3.76-1.52,6.15c-0.96,2.89-2.05,6.17-1.55,7.71
		c3.85,11.78,5.82,31.26,7.71,50.09c1.98,19.62,3.84,38.16,7.62,45.15c4.97,9.18,1.58,12.09-2,15.18c-0.6,0.51-1.22,1.04-1.8,1.61
		C596.61,389.6,595.97,389.81,595.46,389.81z M576.16,256.03c-4.67,0-9.66,1.19-12.69,3.01c-0.08,0.05-0.17,0.08-0.27,0.09
		c-3,0.25-8.18,6.52-8.65,10.48c-0.5,4.19,1.13,8.53,2.57,12.35l35.02,93.22c0.71,1.88,0.95,3.91,1.2,6.05
		c0.24,2.03,0.49,4.13,1.17,6.1c0.17,0.49,0.41,1.07,0.78,1.2c0.38,0.14,0.85-0.22,1.19-0.55c0.61-0.59,1.24-1.14,1.85-1.66
		c3.47-2.99,6.21-5.34,1.72-13.65c-3.9-7.21-5.78-25.86-7.77-45.61c-1.89-18.77-3.84-38.17-7.66-49.83
		c-0.63-1.93,0.48-5.26,1.55-8.49c0.73-2.19,1.48-4.46,1.46-5.74c-0.05-2.32-1.18-4.1-3.35-5.31
		C582.15,256.54,579.23,256.03,576.16,256.03z"/>
</g>
<g>
	<path class="st0" d="M542.33,372.83c9.18-31.9,18.35-63.8,27.53-95.7c1.21-4.21,2.52-8.6,5.45-11.7c2.93-3.1,8.02-4.35,10.84-2.6
		c8.06,0.79,14.48,9.77,13.1,18.3c-0.52,3.19-2.31,5.97-3.32,9c-8.05,24.04-42.3,70.13-44.55,85.68
		c-1.67,11.54-6.94,9.94-12.54,10.68c-0.68,0.09-1.49,0.05-1.88-0.54c-0.36-0.55-0.19-1.31,0.02-1.96
		C538.29,379.87,541.26,376.53,542.33,372.83z"/>
	<path class="st0" d="M538.33,387.14c-1.07,0-1.61-0.45-1.88-0.86c-0.5-0.76-0.31-1.69-0.05-2.49c0.67-2.11,1.76-4.01,2.81-5.84
		c1.04-1.81,2.02-3.52,2.53-5.3l0,0l27.53-95.7c1.17-4.06,2.49-8.67,5.6-11.95c3.1-3.28,8.43-4.55,11.49-2.78
		c3.76,0.41,7.41,2.59,10.02,5.99c2.94,3.82,4.21,8.56,3.49,13.02c-0.33,2.06-1.18,3.95-1.99,5.78c-0.48,1.08-0.98,2.2-1.36,3.32
		c-3.94,11.76-13.99,28.55-23.7,44.8c-10.12,16.92-19.69,32.91-20.82,40.78c-1.49,10.33-5.95,10.65-10.66,10.98
		c-0.79,0.06-1.6,0.11-2.4,0.22C538.71,387.13,538.51,387.14,538.33,387.14z M542.92,373c-0.55,1.93-1.57,3.7-2.65,5.57
		c-1.02,1.77-2.07,3.61-2.7,5.6c-0.16,0.49-0.31,1.1-0.09,1.43c0.22,0.33,0.82,0.33,1.28,0.27c0.84-0.11,1.67-0.17,2.48-0.23
		c4.57-0.32,8.17-0.58,9.52-9.92c1.17-8.11,10.8-24.2,20.99-41.23c9.68-16.19,19.7-32.93,23.59-44.55c0.39-1.18,0.9-2.32,1.4-3.43
		c0.82-1.84,1.59-3.57,1.9-5.47c0.67-4.12-0.51-8.51-3.24-12.06c-2.44-3.17-5.83-5.18-9.3-5.52c-0.09-0.01-0.19-0.04-0.27-0.09
		c-2.54-1.57-7.34-0.38-10.07,2.5c-2.9,3.07-4.18,7.52-5.31,11.44L542.92,373z"/>
</g>
<g>
	<path class="st0" d="M595.27,159.45c-2.54,0.14-8.63,1.94-12.7,9.53c-2.63,4.91-7.64,29.26-17.83,41.03
		c-2.41,2.78-4.63-15.71-8.09-14.48c-3.4,1.21-7.31,3.23-7.57,6.83c-0.2,2.8,2.11,5.25,4.69,6.36c5.55,2.38,7.63,13.94,13.61,14.78
		c8.56,1.21,23.44-28.78,25.51-27.69C594.79,196.81,596.76,162.39,595.27,159.45z"/>
	<path class="st0" d="M567.88,224.14c-0.2,0-0.39-0.01-0.59-0.04c-3.49-0.49-5.7-4.21-7.82-7.8c-1.74-2.95-3.55-5.99-5.94-7.02
		c-2.69-1.15-5.3-3.76-5.07-6.97c0.22-3.13,2.83-5.54,7.98-7.37c0.42-0.15,0.87-0.12,1.29,0.09c1.56,0.78,2.64,3.92,4.11,8.63
		c0.7,2.23,1.74,5.58,2.39,5.99c0.01-0.01,0.03-0.03,0.05-0.05c7.15-8.25,11.72-22.77,14.74-32.39c1.24-3.94,2.22-7.05,3.01-8.53
		c4.9-9.14,12.38-9.81,13.21-9.86c0.25-0.01,0.48,0.12,0.59,0.34c1.13,2.23,0.31,17.15,0.22,18.85c-0.22,3.91-1.06,16.78-2.47,18.17
		c-0.23,0.23-0.53,0.31-0.8,0.23c-0.81,0.44-3.3,4.16-5.5,7.46C581.52,212.47,573.74,224.14,567.88,224.14z M556.97,196.09
		c-0.05,0-0.09,0.01-0.12,0.02c-4.63,1.65-6.97,3.7-7.16,6.29c-0.18,2.59,2.11,4.79,4.32,5.74c2.77,1.19,4.67,4.41,6.52,7.53
		c2.07,3.5,4.03,6.8,6.93,7.21c5.16,0.72,13.34-11.56,18.76-19.69c3.86-5.79,5.42-8.04,6.54-8.04c0,0,0.01,0,0.02,0
		c0.59-1.23,1.46-7.46,2.02-17.35c0.48-8.46,0.48-15.72,0.03-17.68c-1.78,0.23-7.65,1.55-11.73,9.16c-0.74,1.38-1.7,4.44-2.92,8.31
		c-3.05,9.71-7.67,24.38-14.98,32.83c-0.46,0.53-0.95,0.53-1.2,0.48c-1.24-0.26-2.01-2.53-3.36-6.86c-0.96-3.07-2.28-7.29-3.48-7.89
		C557.09,196.1,557.03,196.09,556.97,196.09z M564.18,209.68L564.18,209.68L564.18,209.68z"/>
</g>
<g>
	<path class="st0" d="M629.27,249.45c10.29,2.77,21.47,2.07,31.33-1.97c0.62-0.25,1.25-0.53,1.7-1.02c1.19-1.29,0.68-3.33,0.17-5.01
		c-3.93-13.09-2.6-27.11-3.63-40.74c-1.13-15.05-5.2-29.88-11.92-43.39c-7-2.56-14.86-4.48-22.82-4.99
		c-0.49,7.7-3.36,13.04-8.16,13.61c-2.61,0.31-7.23-0.42-7.23-11.85c-3.85,1.54-11.41,5.47-14.11,6.77
		c0.79,19.9,1.06,28.39-0.15,38.19c3.91,3.26,8.17,6.67,11.27,10.72c3.1,4.04,5.37,8.87,5.43,13.41c0.42,5.67,0.27,11.38-0.45,17.01
		c-0.37,2.89-0.83,6.04,0.71,8.52c0.9,1.44,2.36,2.43,3.89,3.19C621.2,254.83,628.09,254.68,629.27,249.45z"/>
	<path class="st0" d="M622.72,254.44c-2.37,0-5.07-0.67-7.69-1.97c-1.96-0.97-3.31-2.09-4.14-3.42c-1.6-2.58-1.19-5.81-0.83-8.66
		l0.03-0.26c0.71-5.59,0.86-11.27,0.45-16.89c-0.05-4.05-1.93-8.68-5.3-13.08c-2.8-3.66-6.57-6.8-10.22-9.83l-0.95-0.79
		c-0.16-0.14-0.24-0.34-0.22-0.55c1.21-9.76,0.94-18.22,0.15-38.09c-0.01-0.25,0.13-0.47,0.35-0.58c0.69-0.33,1.7-0.84,2.88-1.43
		c3.54-1.77,8.38-4.21,11.27-5.36c0.19-0.08,0.41-0.05,0.58,0.06c0.17,0.12,0.27,0.31,0.27,0.51c0,5.13,0.93,8.56,2.78,10.2
		c0.99,0.88,2.23,1.22,3.77,1.04c4.28-0.51,7.13-5.39,7.61-13.04c0.01-0.16,0.09-0.32,0.21-0.43c0.12-0.11,0.28-0.17,0.45-0.15
		c7.31,0.47,15.26,2.21,22.99,5.03c0.15,0.05,0.27,0.16,0.34,0.31c6.71,13.5,10.86,28.59,11.98,43.62c0.32,4.23,0.41,8.55,0.5,12.74
		c0.2,9.29,0.41,18.9,3.1,27.87c0.58,1.93,1.08,4.11-0.31,5.61c-0.53,0.57-1.21,0.88-1.92,1.17c-9.82,4.02-20.85,4.78-31.13,2.15
		c-0.51,1.54-1.56,2.73-3.06,3.44C625.53,254.18,624.19,254.44,622.72,254.44z M595.12,198.81l0.69,0.57
		c3.7,3.07,7.52,6.25,10.41,10.03c3.53,4.61,5.5,9.5,5.55,13.78c0.42,5.66,0.27,11.43-0.46,17.1l-0.03,0.26
		c-0.35,2.77-0.72,5.64,0.65,7.85c0.7,1.13,1.89,2.09,3.63,2.96c3.87,1.92,8.01,2.38,10.54,1.17c1.36-0.64,2.21-1.73,2.55-3.21
		c0.04-0.16,0.14-0.31,0.28-0.39c0.14-0.09,0.32-0.11,0.48-0.07c10.19,2.74,21.17,2.05,30.94-1.94c0.57-0.23,1.12-0.48,1.48-0.87
		c0.95-1.02,0.51-2.81,0.03-4.41c-2.74-9.13-2.95-18.82-3.15-28.2c-0.09-4.17-0.18-8.48-0.5-12.67
		c-1.11-14.79-5.17-29.64-11.75-42.94c-7.33-2.65-14.85-4.32-21.8-4.83c-0.65,7.94-3.86,12.99-8.66,13.57
		c-1.89,0.22-3.48-0.23-4.74-1.34c-2-1.77-3.07-5.2-3.18-10.21c-2.88,1.23-7.14,3.37-10.33,4.97c-1,0.5-1.87,0.94-2.53,1.26
		C596.02,180.68,596.29,189.16,595.12,198.81z"/>
</g>
<g>
	<path class="st0" d="M659.86,226.3c0.31,0.27,2.06,8.57,5.83,15.72c3.76,7.15,10.87,18.29,11.2,25.97
		c0.81,18.65-15.98,23.24-26.47,23.08c-17.05-0.27-32.42,4.17-49.31,1.57c4.81-14.61-21.46-41.37-45.85-31.99
		c8.67-14.19,31.3-8.86,54.42-12.67c1.86-6.31,1.74-11.78,1.7-19.29C618.73,232.38,651.96,226.94,659.86,226.3z"/>
	<path class="st0" d="M612.47,294.07c-3.77,0-7.59-0.23-11.45-0.82c-0.18-0.03-0.34-0.13-0.43-0.29c-0.1-0.16-0.12-0.34-0.06-0.52
		c1.99-6.05-1.74-14.94-9.29-22.12c-8.26-7.87-21.99-14.39-35.75-9.09c-0.25,0.09-0.53,0.02-0.7-0.18c-0.17-0.2-0.19-0.49-0.05-0.72
		c6.14-10.04,18.97-10.58,33.84-11.2c6.68-0.28,13.59-0.57,20.63-1.69c1.64-5.8,1.61-10.86,1.57-17.8l-0.01-0.93
		c0-0.22,0.11-0.42,0.29-0.53c0.18-0.11,0.41-0.12,0.6-0.03c5.59,2.8,27.11,0.1,39.96-1.51c3.61-0.45,6.47-0.81,8.19-0.95
		c0.17-0.01,0.33,0.04,0.46,0.15c0.21,0.19,0.27,0.38,0.76,2.08c0.81,2.81,2.48,8.65,5.2,13.82c0.71,1.34,1.53,2.83,2.41,4.4
		c3.83,6.88,8.59,15.45,8.86,21.83c0.29,6.62-1.57,12.03-5.53,16.1c-7.08,7.28-18.3,7.67-21.57,7.63
		c-6.85-0.11-13.52,0.56-19.97,1.2C624.57,293.48,618.59,294.07,612.47,294.07z M601.9,292.13c9.72,1.39,18.81,0.49,28.41-0.47
		c6.49-0.65,13.19-1.32,20.12-1.21c3.16,0.06,13.93-0.33,20.66-7.25c3.7-3.81,5.45-8.91,5.17-15.18
		c-0.26-6.08-4.94-14.51-8.71-21.28c-0.88-1.58-1.71-3.07-2.42-4.43c-2.78-5.29-4.48-11.21-5.3-14.06c-0.14-0.5-0.28-0.99-0.38-1.3
		c-1.73,0.16-4.39,0.49-7.68,0.91c-12.41,1.56-32.79,4.11-39.77,1.76v0c0.04,7.2,0.08,12.4-1.73,18.53
		c-0.07,0.23-0.26,0.4-0.49,0.44c-7.25,1.19-14.32,1.49-21.16,1.77c-13.69,0.57-25.61,1.07-31.78,9.08
		c13.68-4.3,27.07,2.2,35.25,9.98C599.82,276.79,603.6,285.6,601.9,292.13z M659.35,226.64L659.35,226.64L659.35,226.64z"/>
</g>
<g>
	<path class="st0" d="M596.46,229.32C596.46,229.32,596.46,229.32,596.46,229.32c-0.35,0-0.62-0.28-0.62-0.63l0.05-4.79
		c0-0.34,0.28-0.61,0.62-0.61c0,0,0,0,0.01,0c0.34,0,0.62,0.28,0.61,0.63l-0.05,4.79C597.08,229.04,596.8,229.32,596.46,229.32z"/>
</g>
<g>
	<rect x="658.46" y="322.31" class="st0" width="7.23" height="66.77"/>
	<path class="st0" d="M665.69,389.7h-7.23c-0.34,0-0.62-0.28-0.62-0.62v-66.77c0-0.34,0.28-0.62,0.62-0.62h7.23
		c0.34,0,0.62,0.28,0.62,0.62v66.77C666.31,389.43,666.03,389.7,665.69,389.7z M659.08,388.46h5.99v-65.53h-5.99V388.46z"/>
</g>
<g>
	<path class="st2" d="M591.89,377.36c-0.01,6.38-3.19,12.23-7.01,16.9c-0.51,0.62-1.04,1.62-0.5,2.21c0.18,0.2,0.44,0.27,0.68,0.34
		c2.22,0.61,6.37,1.29,8.49,0.39c8.16-3.45,13.08-15.88,12.53-20.77c-0.1-0.88-3.08-5.13-6.64-6.68c0.52,1.81-0.07,4.76-0.5,6.6
		c-0.38,1.58-1.19,3.15-2.51,3.81C595.11,380.82,593.27,380.19,591.89,377.36z"/>
	<path class="st2" d="M590.77,398.26c-2.1,0-4.44-0.45-5.86-0.85c-0.27-0.07-0.67-0.18-0.98-0.52c-0.65-0.71-0.46-1.87,0.48-3.02
		c4.55-5.55,6.86-11.11,6.87-16.51c0-0.29,0.2-0.54,0.48-0.6c0.28-0.06,0.57,0.07,0.7,0.33c0.67,1.38,1.52,2.3,2.39,2.59
		c0.46,0.16,0.92,0.13,1.32-0.07c0.99-0.5,1.79-1.73,2.18-3.4c0.69-2.92,0.86-5.04,0.51-6.28c-0.07-0.23,0.01-0.48,0.19-0.64
		c0.18-0.16,0.44-0.2,0.66-0.1c3.63,1.58,6.87,5.95,7.01,7.18c0.59,5.21-4.46,17.84-12.9,21.41
		C592.97,398.12,591.9,398.26,590.77,398.26z M592.41,379.35c-0.5,5.06-2.86,10.2-7.05,15.31c-0.47,0.57-0.7,1.2-0.52,1.4
		c0.07,0.07,0.24,0.12,0.39,0.16c2.21,0.61,6.19,1.22,8.08,0.42c7.81-3.3,12.69-15.36,12.15-20.13c-0.1-0.57-2.33-3.88-5.22-5.63
		c0.09,1.4-0.14,3.26-0.7,5.62c-0.28,1.19-1.02,3.32-2.83,4.22c-0.71,0.35-1.49,0.4-2.27,0.14
		C593.88,380.66,593.15,380.25,592.41,379.35z"/>
</g>
<g>
	<rect x="654.84" y="292.64" class="st0" width="14.46" height="40.61"/>
	<path class="st0" d="M669.31,333.87h-14.46c-0.34,0-0.62-0.28-0.62-0.62v-40.61c0-0.34,0.28-0.62,0.62-0.62h14.46
		c0.34,0,0.62,0.28,0.62,0.62v40.61C669.92,333.59,669.65,333.87,669.31,333.87z M655.46,332.63h13.22v-39.37h-13.22V332.63z"/>
</g>
<g>
	<path class="st0" d="M606.23,219.92c-3.82,0.6-6.67,3.27-8.67,5.8c-0.52,0.65-0.99,1.43-0.93,2.26c0.02,0.28,0.11,0.58,0.31,0.78
		c0.28,0.27,0.72,0.32,1.1,0.21c0.38-0.11,0.7-0.34,1.01-0.58c2.06-1.6,3.9-3.52,6.18-4.79c1.14-0.64,2.57-1.09,3.71-0.47
		c-1.87,0.97-3.6,2.23-5.03,3.77c-0.37,0.4-0.73,0.83-0.94,1.33c-0.21,0.5-0.44,1.23-0.03,1.59c0.67,0.57,1.14,0.19,1.62-0.17
		c1.9-1.59,3.87-2.95,5.96-4.08c0.65-0.35,1.44-0.68,2.1-0.36c0.57,0.28,3.35,1.59,8.69,1.25c1.82-0.11,3.63,0.16,5.97,0.52
		c12.21,2.84,25.42,5.24,35.1,6.75c7.23,1.12,12.54-2.61,14.67-7.56c3.17-7.36,0.03-30.1-7.24-47.96
		c-6.06-14.87-18.54-21.09-20.89-19.51c-1.43,0.96-2.54,10.19,1.45,18.76c6.14,13.19,10.52,24.55,10.52,37.38
		c-11.56,0.69-23.22,1.23-34.88,1.76c-1.03-0.05-6.16-0.19-7.42-0.23c-1.07-0.03-2.12-0.31-3.14-0.64
		c-3.55-1.17-11.14-3.39-12.65-2.3c-3.59,1.52-6.65,4.6-8.9,8.3c-1.26,2.08-2.11,5.38-1.43,5.85c0.43,0.3,1.03,0.38,1.42-0.03
		c1.32-3.96,4.09-7.42,7.66-9.57c-1.64,1.19-3.14,2.58-4.45,4.13c-1.33,1.57-2.5,3.41-2.6,5.47c-0.01,0.16-0.01,0.33,0.09,0.46
		c0.24,0.31,0.73,0.06,1.01-0.22c1.38-1.36,2.42-3.02,3.86-4.31C601.27,221.88,603.56,220.97,606.23,219.92z"/>
	<path class="st0" d="M664.87,234.53c-0.85,0-1.71-0.07-2.59-0.2c-5.53-0.86-20.02-3.24-35.12-6.75c-2.16-0.33-4.02-0.62-5.81-0.51
		c-4.87,0.31-7.73-0.69-9-1.31c-0.41-0.2-1.04,0.08-1.53,0.35c-2.03,1.09-3.95,2.4-5.86,4.01l-0.06,0.05
		c-0.46,0.35-1.32,1-2.36,0.12c-0.54-0.46-0.59-1.24-0.14-2.3c0.25-0.6,0.66-1.08,1.06-1.51c1.02-1.1,2.2-2.09,3.52-2.93
		c-0.52,0.13-1.03,0.36-1.45,0.59c-1.47,0.82-2.73,1.9-4.07,3.05c-0.66,0.56-1.33,1.15-2.03,1.69c-0.35,0.27-0.74,0.55-1.22,0.69
		c-0.63,0.18-1.29,0.04-1.7-0.37c-0.24-0.24-0.4-0.56-0.47-0.95c-0.15,0.15-0.64,0.57-1.21,0.53c-0.29-0.02-0.54-0.15-0.72-0.38
		c-0.04-0.06-0.08-0.12-0.11-0.18c-0.55,0.32-1.28,0.27-1.89-0.16c-1.27-0.89,0.17-4.88,1.26-6.68c2.47-4.08,5.63-7.02,9.13-8.52
		c1.87-1.17,9.01,0.9,13.13,2.26c0.81,0.27,1.88,0.58,2.97,0.61l1.75,0.05c2.05,0.06,4.86,0.14,5.65,0.18
		c11.26-0.52,22.89-1.06,34.25-1.73c-0.13-11.96-4.1-22.88-10.46-36.53c-3.88-8.34-3.2-18.21-1.23-19.53c0.86-0.57,2.26-0.32,3.29,0
		c4.8,1.47,13.69,7.95,18.52,19.8c7.15,17.54,10.6,40.63,7.24,48.43C675.41,231.51,670.57,234.53,664.87,234.53z M622.17,225.81
		c1.64,0,3.31,0.26,5.2,0.55c0.01,0,0.03,0.01,0.05,0.01c15.07,3.51,29.53,5.88,35.05,6.74c7.54,1.17,12.26-3.14,14-7.2
		c3.19-7.42-0.33-30.5-7.25-47.48c-4.66-11.44-13.16-17.68-17.74-19.08c-1.25-0.38-1.97-0.33-2.24-0.15
		c-1.07,0.72-2.23,9.62,1.66,17.98c6.53,14.03,10.58,25.22,10.58,37.64c0,0.33-0.26,0.6-0.58,0.62
		c-11.57,0.69-23.42,1.24-34.88,1.76c-0.02,0-0.04,0-0.06,0c-0.74-0.04-3.7-0.12-5.66-0.18l-1.76-0.05
		c-1.25-0.04-2.43-0.38-3.32-0.67c-6.13-2.01-11.21-3.02-12.09-2.39c-0.04,0.03-0.08,0.05-0.12,0.07c-3.24,1.37-6.3,4.23-8.61,8.05
		c-1.17,1.93-1.74,4.5-1.55,5.06c0.13,0.08,0.33,0.15,0.48,0.07c1.38-4,4.24-7.54,7.87-9.73c0.28-0.17,0.65-0.09,0.84,0.19
		c0.18,0.28,0.12,0.65-0.15,0.84c-1.6,1.16-3.06,2.52-4.34,4.03c-1.53,1.81-2.31,3.38-2.44,4.9c0.01-0.01,0.03-0.02,0.04-0.04
		c0.6-0.59,1.15-1.27,1.69-1.92c0.67-0.82,1.37-1.67,2.19-2.41c0.26-0.24,0.54-0.46,0.82-0.67c1.97-1.7,4.03-2.71,6.25-3.06
		c0.31-0.05,0.61,0.14,0.69,0.45c0.08,0.31-0.08,0.62-0.37,0.74c-2.13,0.84-4.16,1.64-5.8,2.83c-0.89,0.77-1.76,1.69-2.61,2.78
		c-0.58,0.73-0.83,1.32-0.8,1.83c0.01,0.17,0.06,0.31,0.13,0.38c0.09,0.09,0.3,0.12,0.49,0.06c0.27-0.08,0.53-0.27,0.8-0.48
		c0.67-0.52,1.34-1.1,1.98-1.65c1.32-1.14,2.69-2.32,4.27-3.2c1.67-0.93,3.16-1.1,4.31-0.48c0.2,0.11,0.33,0.32,0.33,0.55
		c0,0.23-0.13,0.44-0.34,0.55c-1.88,0.97-3.51,2.2-4.86,3.64c-0.32,0.35-0.65,0.73-0.82,1.15c-0.29,0.68-0.19,0.87-0.19,0.88
		c0.24,0.2,0.3,0.22,0.81-0.17l0.03-0.03c1.95-1.64,3.94-3,6.04-4.13c0.76-0.41,1.74-0.82,2.66-0.37c0.94,0.46,3.62,1.49,8.38,1.19
		C621.57,225.82,621.87,225.81,622.17,225.81z M592.89,227.12L592.89,227.12L592.89,227.12z"/>
</g>
<g>
	<polygon class="st2" points="658.8,385.74 630.09,399.38 694.06,399.38 664.95,385.75 	"/>
	<path class="st2" d="M694.06,400h-63.97c-0.29,0-0.54-0.2-0.6-0.48c-0.06-0.28,0.08-0.57,0.34-0.7l28.72-13.64
		c0.08-0.04,0.17-0.06,0.27-0.06c0,0,0,0,0,0l6.15,0.01c0.09,0,0.18,0.02,0.26,0.06l29.11,13.63c0.26,0.12,0.41,0.41,0.34,0.7
		C694.6,399.8,694.35,400,694.06,400z M632.84,398.76h58.44l-26.46-12.4l-5.87-0.01L632.84,398.76z"/>
</g>
<g>
	<path class="st0" d="M607.85,248.99c-0.3,0-0.56-0.22-0.61-0.52c-0.05-0.34,0.17-0.66,0.51-0.71c8.15-1.32,16.45-1.66,24.68-1.02
		c0.34,0.03,0.6,0.32,0.57,0.67c-0.03,0.34-0.33,0.6-0.67,0.57c-8.13-0.64-16.33-0.3-24.38,1.01
		C607.92,248.99,607.89,248.99,607.85,248.99z"/>
</g>
<g>
	<path class="st2" d="M538.51,379.63c-4.89,5.28-9.79,10.55-14.68,15.83c-0.29,0.31-0.6,0.69-0.56,1.11
		c0.07,0.65,0.87,0.91,1.52,0.98c5.2,0.59,7.28,1.37,11.96-0.96c4.69-2.33,12.07-7.76,16.22-10.95c0.7-0.54,1.44-1.13,1.73-1.97
		c0.36-1.07-0.11-2.22-0.57-3.25c-0.74-1.64-1.48-3.28-2.22-4.93c-1.56,2.62-3.3,5.36-6.04,6.7
		C543.14,383.54,539.13,382.76,538.51,379.63z"/>
	<path class="st2" d="M530.8,398.79c-1.22,0-2.47-0.16-3.95-0.35c-0.65-0.08-1.36-0.18-2.13-0.26c-1.23-0.14-1.98-0.7-2.07-1.53
		c-0.08-0.74,0.44-1.3,0.72-1.6l14.68-15.83c0.16-0.17,0.4-0.24,0.62-0.17c0.22,0.06,0.39,0.25,0.44,0.48
		c0.25,1.24,1.09,1.89,1.75,2.21c1.36,0.67,3.26,0.64,4.73-0.08c2.51-1.23,4.17-3.76,5.78-6.46c0.12-0.2,0.33-0.31,0.57-0.3
		c0.23,0.01,0.43,0.15,0.53,0.36l2.22,4.93c0.53,1.19,1.02,2.45,0.59,3.7c-0.36,1.05-1.27,1.75-1.94,2.26
		c-3.23,2.47-11.28,8.5-16.32,11.01C534.51,398.4,532.68,398.79,530.8,398.79z M538.26,380.81l-13.98,15.07
		c-0.12,0.13-0.42,0.45-0.4,0.63c0.02,0.19,0.44,0.37,0.98,0.43c0.78,0.09,1.49,0.18,2.15,0.27c3.76,0.49,5.65,0.73,9.46-1.17
		c4.94-2.46,12.92-8.43,16.12-10.88c0.7-0.54,1.3-1.04,1.52-1.67c0.28-0.83-0.1-1.8-0.55-2.8l-1.74-3.85
		c-1.53,2.48-3.2,4.71-5.68,5.93c-1.83,0.9-4.11,0.93-5.83,0.08C539.39,382.37,538.68,381.67,538.26,380.81z"/>
</g>
<g class="st1">
	<path class="st0" d="M669.56,299.37c-0.4-0.4-0.94-0.5-1.49-0.46c-0.81,0-1.62,0.01-2.43,0c-2.9,0.03-5.8,0.15-8.7,0.15
		c-0.8,0.05-1.74-0.22-2.36,0.44c-0.97,0.91-0.24,2.68,1.09,2.64c3.09,0.13,6.19,0.17,9.29,0c1.13-0.02,2.27-0.07,3.4-0.08
		c0.07,0.01,0.06,0,0.01,0c0.44,0.02,0.88-0.12,1.2-0.45C670.17,301.02,670.16,299.95,669.56,299.37z"/>
</g>
<g class="st1">
	<path class="st0" d="M664.53,333.3c-1.36,0-2.71,0.05-4.07,0.05c-0.52,0.04-1.07-0.19-1.55,0.06c-1.46,0.56-0.99,2.8,0.56,2.79
		c1.2,0.15,2.41,0.05,3.61,0.07c0.8-0.05,1.67,0.16,2.43-0.12C667.23,335.39,666.35,333,664.53,333.3z"/>
</g>
<g>
	<g class="st1">
		<path class="st0" d="M587.36,266.24c-0.01-0.03-0.02-0.05-0.02-0.05C587.34,266.2,587.35,266.22,587.36,266.24z"/>
	</g>
	<g class="st1">
		<path class="st0" d="M594.08,295.73c-0.02-0.55-0.1-1.1-0.23-1.64c-0.42-2.63-0.94-5.25-1.62-7.83
			c-1.56-6.12-2.53-12.46-5.15-18.25c0.44-0.44,0.64-1.12,0.28-1.78c0.01,0.03,0.02,0.06,0.03,0.1c-0.1-0.22-0.24-0.42-0.41-0.6
			c-0.85-0.86-1.87-1.5-2.96-2.01c-3.2-1.49-4.46-2-7.48-3.16c-2.33-0.97-4.77-1.63-7.3-1.74c-2.6-0.36-5.23-0.53-7.84-0.21
			c-0.11-0.02-3.83,0.47-5.23,1.4c-0.77,0.51-1.69,1.31-1.41,2.34c0.29,1.19,2.03,1.42,2.62,0.34c1.02-1.05,7.53-1.31,11.39-0.6
			c2.33,0.2,3.64,0.3,6.43,1.45c2.58,0.96,5.28,2.21,7.17,3.04c0.42,0.2,0.85,0.41,1.26,0.64c0,0.24,0.06,0.47,0.2,0.7
			c2.15,4.23,3.79,10.71,5.05,16.42c0.51,2.19,1.19,4.33,1.63,6.54c0.38,1.53,0.58,3.09,0.88,4.64c0.03,0.79,0.21,1.5,1.2,1.67
			c0.64,0.13,1.28-0.34,1.46-0.95C594.09,296.07,594.1,295.9,594.08,295.73z"/>
	</g>
</g>
<g>
	<g class="st1">
		<path class="st0" d="M591.49,308.98c-0.11-0.46-0.5-0.75-0.92-0.82c0.04-0.11,0.09-0.21,0.13-0.32c0.2-0.56,0.26-1.15,0.38-1.73
			c0.12-0.46,0.22-0.96-0.06-1.39c-0.54-0.99-2.15-0.79-2.42,0.32c-0.17,0.94-0.28,1.89-0.64,2.77c-0.09,0.17-0.41,0.83-0.52,1
			c-0.52,0.95-1.04,1.91-1.58,2.85c-2.71,4.93-5.76,9.66-8.53,14.56c-0.78,1.37-1.61,2.71-2.3,4.14c-0.05,0.11-0.09,0.22-0.14,0.33
			c-0.07,0.15-0.13,0.31-0.2,0.46c-0.13,0.43-0.06,0.93,0.24,1.26c0.39,0.57,1.23,0.7,1.82,0.36c0.36-0.19,0.52-0.55,0.72-0.89
			c0.3-0.43,0.56-0.87,0.79-1.34c0.72-1.28,1.45-2.55,2.17-3.82c0.99-1.5,2.04-2.96,3.04-4.46c1.1-1.74,2.2-3.48,3.37-5.18
			c0.88-1.26,1.86-2.46,2.63-3.79c0.55-0.99,1.16-1.93,1.66-2.94C591.35,309.92,591.65,309.47,591.49,308.98z"/>
	</g>
	<g class="st1">
		<path class="st0" d="M574.69,331.15c0-0.01,0.01-0.01,0.01-0.02c0,0,0,0,0-0.01C574.7,331.14,574.69,331.15,574.69,331.15z"/>
	</g>
	<g class="st1">
		<path class="st0" d="M574.7,331.13c0.03-0.09,0.12-0.27,0.13-0.3C574.77,330.93,574.73,331.03,574.7,331.13z"/>
	</g>
</g>
<g class="st1">
	<path class="st0" d="M673.05,219.22c-0.74,0.58-0.48,0.96-1.18,2.07c-0.68,1.12-1.2,1.54-2.49,2.77c-1.01,0.89-2.23,1.81-3.6,2.69
		c-0.53,0.21-1.12,0.38-1.9,0.57c-2.67,0.66-6.4,0.46-10.02,0.19c-5.34-0.55-9.8-1.17-14.99-1.84c-1.28-0.08-3.94-0.72-6.29-1.08
		c-1.89-0.53-3.75-1.15-5.67-1.54c-1.44-0.32-2.93-0.39-4.39-0.57c-1.88-0.23-3.78-0.17-5.67-0.09c-0.97,0.11-2-0.03-2.94,0.2
		c-0.59,0.22-0.75,0.84-0.58,1.34c-0.25-0.07-0.51-0.14-0.77-0.07c-1.49,0.15-1.65,2.37-0.19,2.75c1.73,0.48,3.53,0.62,5.31,0.76
		c3.38,0.34,4.82,0.4,7.66,0.97c6.28,1.15,12.31,3.37,18.6,4.48c2.34,0.39,4.64,1.07,7.01,1.3c2.43,0.22,4.85,0.61,7.29,0.49
		c0.91-0.07,1.83,0.15,2.74-0.04c0.57-0.08,0.98-0.4,1.21-0.8c-0.03-0.09-0.07-0.18-0.1-0.26c-0.03-0.07-0.06-0.14-0.08-0.21
		c0,0-0.01-0.02-0.01-0.03c0,0-0.01-0.01-0.02-0.04c0-0.01,0-0.01-0.01-0.02c0,0,0,0,0,0c0,0,0,0,0,0c-0.07-0.17-0.1-0.31-0.06-0.49
		c0.04-0.17,0.16-0.31,0.31-0.4c0,0,0.01,0,0.01-0.01c-0.17-0.33-0.46-0.6-0.91-0.75c1.47-0.26,3.68-0.76,5.52-1.64
		c0.16-0.07,0.33-0.15,0.48-0.23c0.12-0.11,0.25-0.21,0.37-0.32c1.11-1.01,2.14-2.11,3.06-3.3c0.09-0.12,0.21-0.18,0.34-0.19
		c0.07-0.17,0.14-0.34,0.2-0.5c0.48-1.31,1-2.6,1.45-3.92c0.27-0.78,0.5-1.58,0.7-2.37C673.31,219.1,673.17,219.15,673.05,219.22z
		 M653.23,231.25c-2.1-0.25-3.56-0.53-6.32-1.25c-1.36-0.23-2.71-0.51-4.05-0.81c2.72,0.41,5.31,0.76,7.47,1.07
		c2.25,0.35,4.47,0.87,6.71,1.26c0.44,0.07,0.89,0.12,1.34,0.16C656.35,231.69,654.69,231.5,653.23,231.25z"/>
</g>
<g class="st1">
	<path class="st0" d="M656.32,210.03c-0.04-2.11-0.47-4.18-0.94-6.23c-0.7-3.15-1.47-6.29-2.15-9.45c-0.07-0.32-0.14-0.64-0.22-0.96
		c-0.05-0.32-0.09-0.66-0.31-0.9c-0.25-0.37-0.69-0.5-1.1-0.45c-0.41-1.72-0.84-3.43-1.25-5.15c-0.38-1.55-0.86-3.07-1.38-4.48
		c0.17-0.29,0.2-0.66,0-0.98c-0.57-1.06-1.08-2.14-1.58-3.23c-0.16-0.46-0.26-0.97-0.71-1.23c-0.69-0.41-1.64,0.12-1.62,0.93
		c0.16,1.34,0.84,2.54,1.25,3.82c0.62,1.72,1.1,3.49,1.52,5.26c0.77,3.99,1.78,7.94,2.33,11.97c0.12,0.89,0.22,1.79,0.33,2.68
		c0.34,2.35,0.59,3.02,0.71,4.9c0.12,1.5,0.12,3.01,0.35,4.5c-0.02-0.12-0.03-0.25-0.05-0.37c0.06,0.41,0.05,0.84,0.15,1.24
		c0.18,0.67,0.9,1.14,1.58,1.01c0.57-0.12,0.98-0.51,1.29-1.09c0.48,0.22,1.11,0.16,1.48-0.24
		C656.42,211.15,656.4,210.58,656.32,210.03z"/>
</g>
<g class="st1">
	<path class="st0" d="M588.19,209.52c0.38-0.68,1.06-1.83,0.68-1.31c0.8-1.04,1.38-2.24,2.14-3.3c0.96-1.17,1.7-1.97,2.73-3.99
		c0.72-1.49,1.27-3.06,1.48-4.7c0.06-0.34,0.07-0.48,0.05-0.34c0.08-0.58,0.15-1.16,0.22-1.74c-0.01-0.35-0.01-0.71-0.02-1.06
		c-0.05-1.49-0.11-2.98-0.13-4.46c-0.02-2.08,0-4.17,0.13-6.24c-0.72-0.22-1.66,0.25-1.64,1.17c-0.07,3.23-0.49,5.17-1.27,8.65
		c-0.39,1.6-0.64,3.23-1.21,4.78c-1.51,3.52-2.47,5.44-4.37,9.56c-0.17,0.36-0.58,1.19-1.11,2.28c-0.27,0.68-0.76,1.49-0.37,2.21
		c0.27,0.49,0.92,0.68,1.42,0.46C587.34,210.82,587.76,210.17,588.19,209.52z"/>
</g>
<g class="st1">
	<path class="st2" d="M548.67,378.34c-0.34-0.01-0.63,0.2-0.92,0.36c-0.93,0.5-0.87,0.48-1.44,0.66c-2.4,0.62-2.46,0.69-4.08,0.3
		c-0.97-0.23-0.87-0.18-1.18-0.38c-0.04-0.03-0.08-0.07-0.12-0.11c-0.69-1.49-2.92-0.73-2.52,0.88c0.97,2.66,4.4,2.87,6.75,2.15
		c1.15-0.23,2.22-0.66,3.2-1.3c0.45-0.31,1.07-0.53,1.28-1.07C549.97,379.15,549.4,378.33,548.67,378.34z"/>
</g>
<g class="st1">
	<path class="st2" d="M599.24,376.5c-0.28-0.81-1.44-1.01-2.02-0.4c-0.43,0.37-0.03,0.1-0.78,0.57c-0.43,0.22-0.26,0.2-1.05,0.36
		c-0.05,0-0.1,0-0.15-0.01c-0.03,0-0.06-0.01-0.1-0.02c-0.13-0.01-0.3-0.06-0.43-0.1c-0.2-0.1-0.39-0.23-0.57-0.37
		c0,0-0.01-0.01-0.01-0.01c-0.29-0.29-0.69-0.46-1.1-0.46c-1.34-0.05-2.08,1.74-1.1,2.66c1.73,1.58,4.07,1.92,5.89,0.29
		C598.47,378.35,599.73,377.58,599.24,376.5z"/>
</g>
<g class="st1">
	<path class="st0" d="M618.35,290.5c-0.82-0.75-2.07-0.42-3.08-0.51c-4.16-0.15-8.23-0.15-12.47-0.35c-1.85,0.04-1.86,2.77,0,2.82
		c4.53,0.16,9.07,0.22,13.6,0.55c0.11,0,0.24,0.01,0.35,0.02c0.24,0.05,0.49,0.11,0.73,0.04c0.2-0.01,0.39-0.07,0.57-0.18
		C618.9,292.43,619.05,291.18,618.35,290.5z"/>
</g>
<g class="st1">
	<path class="st0" d="M675.78,276.5c0.17-0.87,0.35-1.74,0.49-2.61c0.06-0.4,0.13-0.81,0.19-1.21c-0.79-0.29-1.44,0.39-1.76,1.08
		c0.07-0.09,0.14-0.18,0.18-0.23c-0.3,0.37-0.53,0.79-0.75,1.21c-0.53,0.9-1.06,1.81-1.68,2.66c-0.11,0.11-0.22,0.22-0.32,0.34
		c-0.33,0.34-0.67,0.67-1.03,0.98c-0.54,0.4-3.18,2.57-3.53,2.89c-0.62,0.43-1.82,1.13-3.23,1.8c-3.17,2.26-6.83,3.86-10.63,4.62
		c-0.12,0.02-0.23,0.02-0.34-0.01c-0.43,0.15-0.85,0.31-1.28,0.46c0.63-0.01,1.27-0.02,1.9,0c2.39,0.02,3.77-0.13,5.17-0.29
		c0.28-0.03,0.56-0.06,0.84-0.09c1.33-0.15,2.85-0.28,5.36-0.27c0.62-0.11,1.12,0.06,2.34-0.54c1.98-1.13,3.1-3.18,4.39-4.97
		c0.01-0.01,0.02-0.03,0.03-0.04c0.66-0.65,1.27-1.35,1.82-2.12c0.18-0.25-0.08,0.09-0.15,0.19c0.3-0.43,0.71-0.84,0.94-1.31
		c0.01,0.04,0.07-0.04,0.26-0.37c0.2-0.38,0.38-0.73,0.54-1.06C675.62,277.21,675.71,276.85,675.78,276.5z"/>
</g>
<g>
	<polygon class="st0" points="502.85,186.69 564.23,187.03 585.39,230.48 523.47,230.84 	"/>
	<path class="st0" d="M523.47,231.46c-0.24,0-0.46-0.14-0.56-0.36l-20.61-44.15c-0.09-0.19-0.07-0.42,0.04-0.6
		c0.11-0.18,0.3-0.29,0.53-0.29l61.38,0.34c0.24,0,0.45,0.14,0.55,0.35l21.16,43.45c0.09,0.19,0.08,0.42-0.03,0.6
		c-0.11,0.18-0.31,0.29-0.52,0.29L523.47,231.46C523.47,231.46,523.47,231.46,523.47,231.46z M503.83,187.32l20.03,42.9l60.54-0.35
		l-20.56-42.22L503.83,187.32z"/>
</g>
<g>
	<path class="st0" d="M545.16,208.19c-1.74-0.17-3.65,0.29-4.36,1.9c-0.71,1.6-0.17,3.61,1.13,4.79c1.29,1.18,3.21,1.56,4.91,1.18
		c0.92-0.21,1.84-0.65,2.37-1.44c0.37-0.54,0.52-1.21,0.53-1.87C549.75,210.59,548.77,208.55,545.16,208.19z"/>
	<path class="st0" d="M545.54,216.81c-1.51,0-2.97-0.52-4.03-1.48c-1.53-1.4-2.07-3.71-1.28-5.49c0.86-1.94,3.14-2.44,4.98-2.26
		c0,0,0,0,0,0c4.27,0.42,5.15,3.05,5.14,5.17c-0.01,0.84-0.23,1.6-0.64,2.21c-0.71,1.05-1.89,1.5-2.74,1.69
		C546.5,216.76,546.02,216.81,545.54,216.81z M544.5,208.78c-0.96,0-2.54,0.22-3.13,1.56c-0.58,1.31-0.17,3.03,0.98,4.08
		c1.09,0.99,2.76,1.39,4.36,1.03c0.91-0.2,1.61-0.62,1.99-1.18c0.34-0.51,0.42-1.11,0.42-1.52c0.02-2.38-1.3-3.67-4.02-3.93l0,0
		C544.96,208.8,544.75,208.78,544.5,208.78z"/>
</g>
<g>
	<path class="st0" d="M582.76,232.39c-0.05,0-0.1-0.02-0.14-0.05c-0.08-0.08-0.09-0.21-0.01-0.29l1.5-1.62
		c0.08-0.08,0.21-0.09,0.29-0.01c0.08,0.08,0.09,0.21,0.01,0.29l-1.5,1.62C582.87,232.36,582.81,232.39,582.76,232.39z"/>
</g>
<g>
	<g>
		<polygon class="st0" points="624.76,399.38 596.49,239.94 601.74,238.03 630.01,399.38 		"/>
		<path class="st0" d="M630.01,400h-5.24c-0.2,0-0.37-0.19-0.42-0.47l-28.27-159.44c-0.06-0.33,0.08-0.67,0.31-0.75l5.24-1.91
			c0.11-0.04,0.23-0.02,0.33,0.07c0.1,0.08,0.17,0.22,0.2,0.38l28.27,161.35c0.03,0.19,0,0.38-0.08,0.53
			C630.27,399.91,630.14,400,630.01,400z M625.1,398.76h4.35l-28.03-159.98l-4.41,1.61L625.1,398.76z"/>
	</g>
	<g>
		<polygon class="st0" points="290.2,399.38 318.47,239.94 313.23,238.03 284.96,399.38 		"/>
		<path class="st0" d="M290.2,400h-5.24c-0.13,0-0.26-0.09-0.34-0.24c-0.08-0.15-0.11-0.35-0.08-0.53l28.27-161.35
			c0.03-0.16,0.1-0.3,0.2-0.38c0.1-0.08,0.22-0.11,0.33-0.07l5.24,1.91c0.23,0.08,0.37,0.42,0.31,0.75l-28.27,159.44
			C290.57,399.81,290.4,400,290.2,400z M285.51,398.76h4.35l28.08-158.37l-4.41-1.61L285.51,398.76z"/>
	</g>
	<g class="st1">
		<path class="st0" d="M317.53,242.74c-0.73-0.5-1.64-0.14-2.42-0.14c-0.81,0.14-1.68-0.1-2.46,0.25c-1.06,0.62-0.72,3.11,0.41,3.09
			c1.09,0,2.19,0.04,3.28,0c0.48-0.1,1.05,0.01,1.41-0.58C318.25,244.63,318.13,243.27,317.53,242.74z"/>
	</g>
	<g class="st1">
		<path class="st0" d="M602.53,242.45c-0.49-0.07-1.81-0.02-2.95-0.14c-0.55-0.05-1.11,0.03-1.66-0.01c-0.02,0-0.04-0.01-0.06-0.01
			c-0.13-0.04-0.25-0.07-0.38-0.03c-0.97,0.14-1.06,2.2-0.12,2.55c1.17,0.28,2.38,0.11,3.56,0.07c0.39-0.01,0.79,0,1.18,0
			c0.3,0.04,0.59-0.05,0.81-0.36C603.38,243.89,603.15,242.66,602.53,242.45z"/>
	</g>
	<g>
		<rect x="284.95" y="234.24" class="st0" width="342.54" height="7.79"/>
		<path class="st0" d="M627.49,242.64H284.95c-0.23,0-0.42-0.28-0.42-0.62v-7.79c0-0.34,0.19-0.62,0.42-0.62h342.54
			c0.23,0,0.42,0.28,0.42,0.62v7.79C627.91,242.37,627.72,242.64,627.49,242.64z M285.38,241.41h341.69v-6.55H285.38V241.41z"/>
	</g>
</g>
</svg>
